<svg width="76" height="12" viewBox="0 0 76 12" fill="none" xmlns="http://www.w3.org/2000/svg">
<g clip-path="url(#clip0_203_599)">
<path d="M11.572 4.26998L8.03202 3.75598L6.44802 0.547985C6.40214 0.469343 6.33644 0.404099 6.25749 0.358755C6.17853 0.313412 6.08907 0.289551 5.99802 0.289551C5.90697 0.289551 5.81751 0.313412 5.73856 0.358755C5.6596 0.404099 5.59391 0.469343 5.54802 0.547985L3.96802 3.75598L0.428023 4.26998C0.335673 4.2834 0.248919 4.32238 0.177576 4.38254C0.106232 4.44269 0.0531464 4.52161 0.0243241 4.61036C-0.00449822 4.69912 -0.00790677 4.79417 0.014484 4.88476C0.0368748 4.97536 0.0841713 5.05788 0.151023 5.12298L2.71302 7.62298L2.10702 11.149C2.0912 11.241 2.10146 11.3356 2.13664 11.4221C2.17182 11.5086 2.23051 11.5835 2.30607 11.6383C2.38163 11.6932 2.47104 11.7258 2.56417 11.7324C2.6573 11.7391 2.75043 11.7195 2.83302 11.676L6.00002 10.008L9.16702 11.673C9.23844 11.7109 9.31816 11.7305 9.39902 11.73C9.47189 11.7301 9.5439 11.7144 9.61004 11.6838C9.67617 11.6532 9.73482 11.6085 9.78187 11.5529C9.82893 11.4973 9.86326 11.432 9.88246 11.3617C9.90166 11.2914 9.90526 11.2178 9.89302 11.146L9.28702 7.61998L11.849 5.11998C11.9159 5.05488 11.9632 4.97236 11.9856 4.88176C12.008 4.79117 12.0045 4.69612 11.9757 4.60737C11.9469 4.51861 11.8938 4.43969 11.8225 4.37954C11.7511 4.31938 11.6644 4.2804 11.572 4.26698V4.26998Z" fill="#FB5B29"/>
</g>
<g clip-path="url(#clip1_203_599)">
<path d="M27.572 4.26998L24.032 3.75598L22.448 0.547985C22.4021 0.469343 22.3364 0.404099 22.2575 0.358755C22.1785 0.313412 22.0891 0.289551 21.998 0.289551C21.907 0.289551 21.8175 0.313412 21.7386 0.358755C21.6596 0.404099 21.5939 0.469343 21.548 0.547985L19.968 3.75598L16.428 4.26998C16.3357 4.2834 16.2489 4.32238 16.1776 4.38254C16.1062 4.44269 16.0531 4.52161 16.0243 4.61036C15.9955 4.69912 15.9921 4.79417 16.0145 4.88476C16.0369 4.97536 16.0842 5.05788 16.151 5.12298L18.713 7.62298L18.107 11.149C18.0912 11.241 18.1015 11.3356 18.1366 11.4221C18.1718 11.5086 18.2305 11.5835 18.3061 11.6383C18.3816 11.6932 18.471 11.7258 18.5642 11.7324C18.6573 11.7391 18.7504 11.7195 18.833 11.676L22 10.008L25.167 11.673C25.2384 11.7109 25.3182 11.7305 25.399 11.73C25.4719 11.7301 25.5439 11.7144 25.61 11.6838C25.6762 11.6532 25.7348 11.6085 25.7819 11.5529C25.8289 11.4973 25.8633 11.432 25.8825 11.3617C25.9017 11.2914 25.9053 11.2178 25.893 11.146L25.287 7.61998L27.849 5.11998C27.9159 5.05488 27.9632 4.97236 27.9856 4.88176C28.008 4.79117 28.0045 4.69612 27.9757 4.60737C27.9469 4.51861 27.8938 4.43969 27.8225 4.37954C27.7511 4.31938 27.6644 4.2804 27.572 4.26698V4.26998Z" fill="#FB5B29"/>
</g>
<g clip-path="url(#clip2_203_599)">
<path d="M43.572 4.26998L40.032 3.75598L38.448 0.547985C38.4021 0.469343 38.3364 0.404099 38.2575 0.358755C38.1785 0.313412 38.0891 0.289551 37.998 0.289551C37.907 0.289551 37.8175 0.313412 37.7386 0.358755C37.6596 0.404099 37.5939 0.469343 37.548 0.547985L35.968 3.75598L32.428 4.26998C32.3357 4.2834 32.2489 4.32238 32.1776 4.38254C32.1062 4.44269 32.0531 4.52161 32.0243 4.61036C31.9955 4.69912 31.9921 4.79417 32.0145 4.88476C32.0369 4.97536 32.0842 5.05788 32.151 5.12298L34.713 7.62298L34.107 11.149C34.0912 11.241 34.1015 11.3356 34.1366 11.4221C34.1718 11.5086 34.2305 11.5835 34.3061 11.6383C34.3816 11.6932 34.471 11.7258 34.5642 11.7324C34.6573 11.7391 34.7504 11.7195 34.833 11.676L38 10.008L41.167 11.673C41.2384 11.7109 41.3182 11.7305 41.399 11.73C41.4719 11.7301 41.5439 11.7144 41.61 11.6838C41.6762 11.6532 41.7348 11.6085 41.7819 11.5529C41.8289 11.4973 41.8633 11.432 41.8825 11.3617C41.9017 11.2914 41.9053 11.2178 41.893 11.146L41.287 7.61998L43.849 5.11998C43.9159 5.05488 43.9632 4.97236 43.9856 4.88176C44.008 4.79117 44.0045 4.69612 43.9757 4.60737C43.9469 4.51861 43.8938 4.43969 43.8225 4.37954C43.7511 4.31938 43.6644 4.2804 43.572 4.26698V4.26998Z" fill="#FB5B29"/>
</g>
<g clip-path="url(#clip3_203_599)">
<path d="M59.572 4.26998L56.032 3.75598L54.448 0.547985C54.4021 0.469343 54.3364 0.404099 54.2575 0.358755C54.1785 0.313412 54.0891 0.289551 53.998 0.289551C53.907 0.289551 53.8175 0.313412 53.7386 0.358755C53.6596 0.404099 53.5939 0.469343 53.548 0.547985L51.968 3.75598L48.428 4.26998C48.3357 4.2834 48.2489 4.32238 48.1776 4.38254C48.1062 4.44269 48.0531 4.52161 48.0243 4.61036C47.9955 4.69912 47.9921 4.79417 48.0145 4.88476C48.0369 4.97536 48.0842 5.05788 48.151 5.12298L50.713 7.62298L50.107 11.149C50.0912 11.241 50.1015 11.3356 50.1366 11.4221C50.1718 11.5086 50.2305 11.5835 50.3061 11.6383C50.3816 11.6932 50.471 11.7258 50.5642 11.7324C50.6573 11.7391 50.7504 11.7195 50.833 11.676L54 10.008L57.167 11.673C57.2384 11.7109 57.3182 11.7305 57.399 11.73C57.4719 11.7301 57.5439 11.7144 57.61 11.6838C57.6762 11.6532 57.7348 11.6085 57.7819 11.5529C57.8289 11.4973 57.8633 11.432 57.8825 11.3617C57.9017 11.2914 57.9053 11.2178 57.893 11.146L57.287 7.61998L59.849 5.11998C59.9159 5.05488 59.9632 4.97236 59.9856 4.88176C60.008 4.79117 60.0045 4.69612 59.9757 4.60737C59.9469 4.51861 59.8938 4.43969 59.8225 4.37954C59.7511 4.31938 59.6644 4.2804 59.572 4.26698V4.26998Z" fill="#FB5B29"/>
</g>
<g clip-path="url(#clip4_203_599)">
<path d="M75.572 4.26998L72.032 3.75598L70.448 0.547985C70.4021 0.469343 70.3364 0.404099 70.2575 0.358755C70.1785 0.313412 70.0891 0.289551 69.998 0.289551C69.907 0.289551 69.8175 0.313412 69.7386 0.358755C69.6596 0.404099 69.5939 0.469343 69.548 0.547985L67.968 3.75598L64.428 4.26998C64.3357 4.2834 64.2489 4.32238 64.1776 4.38254C64.1062 4.44269 64.0531 4.52161 64.0243 4.61036C63.9955 4.69912 63.9921 4.79417 64.0145 4.88476C64.0369 4.97536 64.0842 5.05788 64.151 5.12298L66.713 7.62298L66.107 11.149C66.0912 11.241 66.1015 11.3356 66.1366 11.4221C66.1718 11.5086 66.2305 11.5835 66.3061 11.6383C66.3816 11.6932 66.471 11.7258 66.5642 11.7324C66.6573 11.7391 66.7504 11.7195 66.833 11.676L70 10.008L73.167 11.673C73.2384 11.7109 73.3182 11.7305 73.399 11.73C73.4719 11.7301 73.5439 11.7144 73.61 11.6838C73.6762 11.6532 73.7348 11.6085 73.7819 11.5529C73.8289 11.4973 73.8633 11.432 73.8825 11.3617C73.9017 11.2914 73.9053 11.2178 73.893 11.146L73.287 7.61998L75.849 5.11998C75.9159 5.05488 75.9632 4.97236 75.9856 4.88176C76.008 4.79117 76.0045 4.69612 75.9757 4.60737C75.9469 4.51861 75.8938 4.43969 75.8225 4.37954C75.7511 4.31938 75.6644 4.2804 75.572 4.26698V4.26998Z" fill="#FB5B29"/>
</g>
<defs>
<clipPath id="clip0_203_599">
<rect width="12" height="12" fill="white"/>
</clipPath>
<clipPath id="clip1_203_599">
<rect width="12" height="12" fill="white" transform="translate(16)"/>
</clipPath>
<clipPath id="clip2_203_599">
<rect width="12" height="12" fill="white" transform="translate(32)"/>
</clipPath>
<clipPath id="clip3_203_599">
<rect width="12" height="12" fill="white" transform="translate(48)"/>
</clipPath>
<clipPath id="clip4_203_599">
<rect width="12" height="12" fill="white" transform="translate(64)"/>
</clipPath>
</defs>
</svg>
