<svg width="152" height="44" viewBox="0 0 152 44" fill="none" xmlns="http://www.w3.org/2000/svg">
<g clip-path="url(#clip0_18_675)">
<path d="M8.66759 44C8.33539 44 7.97298 44 7.64077 44C7.00656 43.9699 6.25154 43.9399 5.49652 43.8196C4.80191 43.6993 4.16769 43.4887 3.59388 43.188C2.98987 42.8872 2.47646 42.4962 1.99324 42.0451C1.51003 41.594 1.14763 41.0526 0.815418 40.4511C0.513411 39.8797 0.332207 39.2481 0.211405 38.5564C0.0604014 37.8045 0.0302006 37.0226 0.0302006 36.4211C0.0302006 36.1805 0 35.3985 0 35.3985V8.60151C0 8.60151 -2.92516e-08 7.81956 0.0302006 7.57895C0.0302006 6.97745 0.090602 6.1955 0.211405 5.44362C0.362408 4.75189 0.543612 4.15038 0.845619 3.57895C1.14763 2.97745 1.54023 2.4361 1.99324 1.98497C2.47646 1.50377 3.02007 1.11279 3.62408 0.812038C4.19789 0.511286 4.83211 0.30076 5.49652 0.180459C6.25154 0.0300829 7.03676 7.62939e-06 7.64077 7.62939e-06H8.66759H143.363H144.389C144.963 7.62939e-06 145.748 0.060158 146.503 0.180459C147.198 0.30076 147.802 0.511286 148.406 0.812038C148.98 1.11279 149.524 1.50377 150.007 1.95489C150.46 2.40602 150.852 2.94738 151.185 3.54888C151.487 4.12031 151.668 4.75189 151.789 5.41354C151.909 6.13535 151.97 6.85715 152 7.54888C152 7.87971 152 8.21053 152 8.57144C152 8.99249 152 9.41354 152 9.80452V34.1654C152 34.5865 152 34.9774 152 35.3985C152 35.7594 152 36.1203 152 36.4511C151.97 37.1128 151.94 37.8647 151.819 38.5564C151.698 39.2481 151.487 39.8797 151.215 40.4511C150.913 41.0526 150.52 41.5639 150.067 42.015C149.584 42.4962 149.071 42.8872 148.467 43.188C147.863 43.4887 147.258 43.6993 146.564 43.8196C145.839 43.9399 145.084 44 144.42 44C144.087 44 143.725 44 143.393 44H142.155H8.66759Z" fill="black"/>
<path d="M55.7333 29.9918H50.3755L49.0585 33.5837H46.6938L51.9319 20.2041H54.1469L59.5047 33.5837H57.0204L55.7333 29.9918ZM51.0639 28.1959H55.0748L53.6381 24.3646C53.4285 23.8259 53.249 23.2571 53.0694 22.5986C52.8898 23.1674 52.7102 23.7361 52.5006 24.3347L51.0639 28.1959Z" fill="white"/>
<path d="M60.4925 26.0708C60.4925 25.3225 60.4625 24.5143 60.4326 23.6463H62.5877C62.6775 24.0653 62.7374 24.4844 62.7673 24.9034C63.6653 23.9456 64.683 23.4667 65.8204 23.4667C66.4789 23.4667 67.1075 23.6463 67.6762 23.9755C68.2449 24.3048 68.6938 24.8435 69.053 25.5619C69.4122 26.2803 69.5619 27.2082 69.5619 28.3157C69.5619 29.483 69.3523 30.4708 68.9632 31.3089C68.5741 32.1469 68.0054 32.7456 67.287 33.1946C66.5687 33.6136 65.7605 33.8231 64.8027 33.8231C64.1143 33.8231 63.4557 33.7034 62.7972 33.4939V37.6245L60.5224 37.834V26.0708H60.4925ZM66.5088 31.1592C66.9877 30.5306 67.1972 29.6327 67.1972 28.4055C67.1972 27.298 67.0177 26.4898 66.6285 25.981C66.2394 25.4721 65.7306 25.2327 65.102 25.2327C64.653 25.2327 64.234 25.3225 63.8748 25.532C63.4857 25.7415 63.1564 26.0109 62.7972 26.3701V31.7279C63.0367 31.8476 63.2762 31.9374 63.6054 31.9973C63.9047 32.0572 64.204 32.0871 64.5034 32.0871C65.3714 32.0871 66.0299 31.7878 66.5088 31.1592Z" fill="white"/>
<path d="M70.9089 26.0708C70.9089 25.3225 70.8789 24.5143 70.849 23.6463H73.0041C73.0939 24.0653 73.1538 24.4844 73.1837 24.9034C74.0817 23.9456 75.0993 23.4667 76.2368 23.4667C76.8953 23.4667 77.5238 23.6463 78.0925 23.9755C78.6612 24.3048 79.1102 24.8435 79.4694 25.5619C79.8286 26.2803 79.9783 27.2082 79.9783 28.3157C79.9783 29.483 79.7687 30.4708 79.3796 31.3089C78.9905 32.1469 78.4218 32.7456 77.7034 33.1946C76.9851 33.6136 76.1769 33.8231 75.2191 33.8231C74.5306 33.8231 73.8721 33.7034 73.2136 33.4939V37.6245L70.9388 37.834V26.0708H70.9089ZM76.9252 31.1592C77.4041 30.5306 77.6136 29.6327 77.6136 28.4055C77.6136 27.298 77.434 26.4898 77.0449 25.981C76.6558 25.4721 76.147 25.2327 75.5184 25.2327C75.0694 25.2327 74.6504 25.3225 74.2912 25.532C73.9021 25.7415 73.5728 26.0109 73.2136 26.3701V31.7279C73.4531 31.8476 73.6925 31.9374 74.0218 31.9973C74.3211 32.0572 74.6204 32.0871 74.9197 32.0871C75.7878 32.0871 76.4463 31.7878 76.9252 31.1592Z" fill="white"/>
<path d="M84.1388 32.9551C83.151 32.4163 82.4027 31.6381 81.864 30.6204C81.3252 29.6027 81.0558 28.4054 81.0558 27.0286C81.0558 25.532 81.3551 24.2449 81.9837 23.1973C82.5823 22.1497 83.4204 21.3714 84.468 20.8327C85.5157 20.2939 86.683 20.0544 88 20.0544C88.7782 20.0544 89.4966 20.1442 90.215 20.2939C90.9034 20.4735 91.5619 20.683 92.1606 20.9823L91.5918 22.7483C90.3646 22.1497 89.1973 21.8503 88.1197 21.8503C87.1918 21.8503 86.3837 22.0599 85.6653 22.449C84.9769 22.8381 84.4082 23.4367 84.0191 24.185C83.6299 24.9633 83.4503 25.8912 83.4503 26.9687C83.4503 27.9265 83.6 28.7646 83.8993 29.5129C84.1986 30.2612 84.6776 30.8299 85.3061 31.2789C85.9347 31.698 86.7728 31.9374 87.7306 31.9374C88.1796 31.9374 88.6286 31.9075 89.0476 31.8177C89.4966 31.7578 89.9157 31.6381 90.3048 31.4884V28.7946H87.2218V27.0286H92.5197V32.6558C91.7415 33.015 90.9633 33.2844 90.1252 33.464C89.2871 33.6435 88.449 33.7633 87.6109 33.7633C86.2939 33.7633 85.1265 33.4939 84.1388 32.9551Z" fill="white"/>
<path d="M100.661 33.5837C100.571 33.1946 100.541 32.7456 100.512 32.2667C100.152 32.6857 99.7034 33.0449 99.1347 33.3442C98.5659 33.6435 97.9374 33.7932 97.219 33.7932C96.6503 33.7932 96.1115 33.6735 95.6625 33.4639C95.1836 33.2245 94.8244 32.8952 94.5251 32.4463C94.2557 31.9973 94.1061 31.4286 94.1061 30.8C94.1061 29.8422 94.4653 29.0639 95.1537 28.4952C95.8421 27.9265 97.0095 27.6272 98.6258 27.6272C99.2244 27.6272 99.853 27.6571 100.452 27.7469V27.5374C100.452 26.6694 100.272 26.0408 99.883 25.6816C99.4938 25.3225 98.9551 25.1429 98.2666 25.1429C97.7877 25.1429 97.2489 25.2027 96.7102 25.3524C96.1415 25.502 95.6625 25.6517 95.2435 25.8612L94.8843 24.185C95.3034 24.0054 95.8122 23.8259 96.5006 23.6762C97.1591 23.5265 97.8775 23.4367 98.5959 23.4367C99.4639 23.4367 100.182 23.5565 100.781 23.8259C101.38 24.0952 101.858 24.5442 102.188 25.1728C102.517 25.8014 102.697 26.6694 102.697 27.7469V31.698C102.697 32.117 102.726 32.7456 102.756 33.5837H100.661ZM99.2843 31.7279C99.7632 31.4884 100.152 31.219 100.452 30.8898V29.034C99.8231 28.9742 99.3142 28.9442 98.9251 28.9442C97.9972 28.9442 97.3387 29.0939 96.9796 29.3932C96.6204 29.6925 96.4408 30.1116 96.4408 30.6204C96.4408 31.0993 96.5605 31.4884 96.8299 31.7279C97.0993 31.9673 97.4585 32.0871 97.9074 32.0871C98.3564 32.0871 98.8054 31.9673 99.2843 31.7279Z" fill="white"/>
<path d="M104.463 31.1891V19.4259L106.737 19.2463V30.8C106.737 31.219 106.797 31.5184 106.947 31.698C107.097 31.8776 107.306 31.9673 107.635 31.9673C107.785 31.9673 107.965 31.9374 108.234 31.8776L108.503 33.5238C108.294 33.6136 108.024 33.6735 107.725 33.7333C107.426 33.7932 107.126 33.8231 106.857 33.8231C105.271 33.7633 104.463 32.9252 104.463 31.1891Z" fill="white"/>
<path d="M110.15 31.1891V19.4259L112.424 19.2463V30.8C112.424 31.219 112.484 31.5184 112.634 31.698C112.784 31.8776 112.993 31.9673 113.322 31.9673C113.472 31.9673 113.652 31.9374 113.921 31.8776L114.19 33.5238C113.981 33.6136 113.712 33.6735 113.412 33.7333C113.113 33.7932 112.814 33.8231 112.544 33.8231C110.958 33.7633 110.15 32.9252 110.15 31.1891Z" fill="white"/>
<path d="M123.559 28.8844H117.034C117.124 30.9796 118.141 32.0272 120.027 32.0272C120.506 32.0272 120.985 31.9674 121.464 31.8476C121.943 31.7279 122.422 31.5782 122.871 31.3986L123.38 32.9551C122.272 33.4939 121.015 33.7633 119.608 33.7633C118.561 33.7633 117.663 33.5537 116.914 33.1646C116.196 32.7755 115.627 32.1769 115.268 31.4286C114.909 30.6803 114.729 29.7823 114.729 28.7048C114.729 27.5973 114.909 26.6395 115.298 25.8612C115.687 25.0531 116.226 24.4544 116.914 24.0354C117.603 23.6163 118.411 23.4068 119.309 23.4068C120.237 23.4068 121.045 23.6163 121.673 24.0653C122.302 24.5143 122.781 25.083 123.08 25.8313C123.38 26.5796 123.529 27.3878 123.529 28.2558V28.8844H123.559ZM121.314 27.4476C121.284 26.6395 121.075 26.0708 120.716 25.6517C120.356 25.2626 119.878 25.0531 119.279 25.0531C118.71 25.0531 118.231 25.2626 117.842 25.6517C117.453 26.0408 117.214 26.6395 117.094 27.4476H121.314Z" fill="white"/>
<path d="M125.265 26.1306C125.265 25.5918 125.235 24.7537 125.205 23.6163H127.331C127.361 23.8857 127.39 24.215 127.45 24.6041C127.48 24.9932 127.51 25.2925 127.51 25.532C127.78 25.083 128.049 24.7238 128.288 24.4245C128.558 24.1252 128.857 23.8857 129.186 23.7061C129.516 23.5265 129.905 23.4367 130.354 23.4367C130.713 23.4367 131.012 23.4667 131.252 23.5565L130.952 25.532C130.743 25.4721 130.473 25.4422 130.204 25.4422C129.665 25.4422 129.186 25.5918 128.797 25.8612C128.408 26.1306 127.959 26.5796 127.51 27.2082V33.6136H125.235V26.1306H125.265Z" fill="white"/>
<path d="M132.539 37.6544C132.209 37.5946 131.94 37.5347 131.731 37.4449L132.15 35.7687C132.299 35.7986 132.509 35.8585 132.718 35.8884C132.958 35.9184 133.167 35.9483 133.377 35.9483C134.395 35.9483 135.143 35.2898 135.652 34.0027L135.801 33.6435L132.12 23.5864H134.574L136.43 29.2136C136.729 30.1714 136.939 30.9197 136.999 31.4286C137.178 30.7102 137.388 29.9918 137.597 29.2735L139.483 23.6163H141.788L138.106 33.7034C137.747 34.6612 137.388 35.4395 136.999 36.0082C136.61 36.6068 136.131 37.0258 135.592 37.3252C135.053 37.5946 134.395 37.7442 133.616 37.7442C133.227 37.7442 132.868 37.7143 132.539 37.6544Z" fill="white"/>
<path d="M46.6938 7.45315H50.7646L50.6449 8.4409H47.8911V10.3565H50.4952V11.2844H47.8911V13.3797H50.7945L50.7047 14.3674H46.6938V7.45315Z" fill="white"/>
<path d="M53.5782 10.8354L51.4231 7.45306H52.7701L54.2367 9.93742L55.7633 7.45306H57.0803L54.9551 10.8054L57.2599 14.3673H55.883L54.2367 11.6435L52.5605 14.3673H51.2435L53.5782 10.8354Z" fill="white"/>
<path d="M58.1278 7.45306H59.9836C60.8516 7.45306 61.5401 7.63266 61.989 7.99184C62.4679 8.35102 62.6775 8.85987 62.6775 9.5483C62.6775 9.99728 62.5877 10.4163 62.3781 10.7456C62.1686 11.0748 61.8693 11.3442 61.5101 11.5238C61.1509 11.7034 60.702 11.7932 60.223 11.7932C59.9537 11.7932 59.6543 11.7633 59.3251 11.7034V14.3673H58.1278V7.45306ZM61.121 10.5361C61.3605 10.2966 61.5101 9.96735 61.5101 9.5483C61.5101 9.12925 61.3904 8.82993 61.121 8.62041C60.8516 8.44082 60.4924 8.35102 59.9836 8.35102H59.3251V10.8054C59.6244 10.8653 59.8639 10.8653 60.0135 10.8653C60.4924 10.8952 60.8815 10.7755 61.121 10.5361Z" fill="white"/>
<path d="M63.8748 7.45306H65.072V13.3497H67.9156L67.8258 14.3673H63.8748V7.45306Z" fill="white"/>
<path d="M69.7415 14.0381C69.2327 13.7388 68.8436 13.3497 68.5742 12.8109C68.3048 12.302 68.1851 11.6735 68.1851 10.985C68.1851 10.2667 68.3347 9.60816 68.6041 9.06939C68.9034 8.53061 69.2925 8.11157 69.8313 7.81225C70.3701 7.51293 70.9987 7.36327 71.717 7.36327C72.4055 7.36327 73.0041 7.51293 73.513 7.78231C74.0218 8.08163 74.4109 8.47075 74.6504 9.00952C74.9198 9.51837 75.0395 10.1469 75.0395 10.8354C75.0395 11.5837 74.8898 12.2122 74.6204 12.781C74.3211 13.3197 73.932 13.7388 73.3932 14.0381C72.8544 14.3374 72.2259 14.4871 71.5075 14.4871C70.849 14.4571 70.2504 14.3075 69.7415 14.0381ZM72.8245 13.1701C73.1538 12.9605 73.3932 12.6313 73.5728 12.2422C73.7524 11.8531 73.8123 11.4041 73.8123 10.8952C73.8123 10.3864 73.7524 9.96735 73.6027 9.57823C73.4531 9.18912 73.2136 8.8898 72.9143 8.65034C72.5851 8.41088 72.166 8.29116 71.6871 8.29116C71.2082 8.29116 70.7891 8.41088 70.4599 8.65034C70.1306 8.8898 69.8612 9.18912 69.7116 9.57823C69.532 9.96735 69.4721 10.4163 69.4721 10.8653C69.4721 11.3741 69.5619 11.8231 69.7116 12.2122C69.8612 12.6014 70.1007 12.9306 70.43 13.1401C70.7592 13.3796 71.1483 13.4694 71.6572 13.4694C72.0762 13.5293 72.4953 13.4095 72.8245 13.1701Z" fill="white"/>
<path d="M76.4163 7.45306H78.5714C79.3496 7.45306 79.9482 7.60272 80.3673 7.93198C80.7863 8.26123 80.9659 8.71021 80.9659 9.27891C80.9659 9.6381 80.9061 9.96735 80.7564 10.2367C80.6067 10.5061 80.4271 10.7456 80.2176 10.9252C80.0081 11.1048 79.7686 11.2245 79.5591 11.3143L81.6843 14.3673H80.3074L78.5115 11.6435H77.6435V14.3673H76.4462V7.45306H76.4163ZM78.272 10.7156C78.5714 10.7156 78.8108 10.6558 79.0503 10.5361C79.2598 10.4163 79.4394 10.2667 79.5591 10.0571C79.6788 9.84762 79.7387 9.60817 79.7387 9.33878C79.7387 8.97959 79.619 8.74014 79.4095 8.59048C79.1999 8.44082 78.8707 8.35102 78.4516 8.35102H77.5836V10.7156H78.272Z" fill="white"/>
<path d="M82.6122 7.45306H86.6829L86.5632 8.44082H83.8095V10.3565H86.4135V11.2844H83.8095V13.3796H86.7129L86.6231 14.3673H82.6122V7.45306Z" fill="white"/>
<path d="M91.083 7.45306H92.2803V14.3673H91.083V7.45306Z" fill="white"/>
<path d="M95.423 8.44082H93.2679L93.3877 7.45306H98.7754L98.6557 8.44082H96.6203V14.3673H95.423V8.44082Z" fill="white"/>
<path d="M103.954 14.0381C103.445 13.7388 103.056 13.3497 102.786 12.8109C102.517 12.302 102.397 11.6735 102.397 10.985C102.397 10.2667 102.547 9.60816 102.816 9.06939C103.086 8.53061 103.505 8.11157 104.043 7.81225C104.582 7.51293 105.211 7.36327 105.929 7.36327C106.618 7.36327 107.216 7.51293 107.725 7.78231C108.234 8.08163 108.623 8.47075 108.863 9.00952C109.132 9.51837 109.252 10.1469 109.252 10.8354C109.252 11.5837 109.102 12.2122 108.833 12.781C108.533 13.3197 108.144 13.7388 107.605 14.0381C107.067 14.3374 106.438 14.4871 105.72 14.4871C105.061 14.4571 104.463 14.3075 103.954 14.0381ZM107.037 13.1701C107.366 12.9605 107.605 12.6313 107.785 12.2422C107.965 11.8531 108.024 11.4041 108.024 10.8952C108.024 10.3864 107.965 9.96735 107.815 9.57823C107.665 9.18912 107.426 8.8898 107.126 8.65034C106.797 8.41088 106.378 8.29116 105.899 8.29116C105.42 8.29116 105.001 8.41088 104.672 8.65034C104.343 8.8898 104.073 9.18912 103.924 9.57823C103.744 9.96735 103.684 10.4163 103.684 10.8653C103.684 11.3741 103.774 11.8231 103.924 12.2122C104.073 12.6014 104.313 12.9306 104.642 13.1401C104.971 13.3796 105.39 13.4694 105.869 13.4694C106.288 13.5293 106.707 13.4095 107.037 13.1701Z" fill="white"/>
<path d="M110.629 7.45306H112.005L115.418 12.8109C115.388 12.302 115.388 11.8231 115.388 11.4041V7.45306H116.495V14.3673H115.178L111.706 8.91973C111.736 9.5483 111.766 10.0871 111.766 10.566V14.3673H110.658V7.45306H110.629Z" fill="white"/>
<path fill-rule="evenodd" clip-rule="evenodd" d="M29.932 7.48299H17.2708C11.2844 7.48299 9.09937 9.66803 9.09937 15.6544V28.3456C9.09937 34.332 11.2844 36.517 17.2708 36.517H29.932C35.9184 36.517 38.1034 34.332 38.1034 28.3456V15.6544C38.1034 9.66803 35.9184 7.48299 29.932 7.48299Z" fill="#C8102E"/>
<path d="M14.8463 22H15.6245V25.8014H14.8463V24.2449H13.1103V25.7714H12.332V22H13.1103V23.5265H14.8463V22ZM19.1865 24.1551C19.1865 24.7837 18.8871 25.1129 18.3184 25.1129C17.7497 25.1129 17.4504 24.7837 17.4504 24.1551V22H16.6722V24.1551C16.6722 25.2327 17.2708 25.8313 18.2885 25.8313C19.3361 25.8313 19.9348 25.2027 19.9348 24.1252V22H19.1565V24.1551H19.1865ZM28.0762 24.6041L27.2082 22H26.5796L25.7116 24.6041L24.8735 22H24.0654L25.3824 25.8014H26.0109L26.879 23.317L27.747 25.8014H28.3756L29.6926 22H28.8844L28.0762 24.6041ZM31.0694 24.1551H32.4762V23.4667H31.0694V22.6884H33.1048V22H30.3211V25.7714H33.1946V25.083H31.0994V24.1551H31.0694ZM34.0926 25.7714H34.8409V22H34.0926V25.7714ZM21.4613 24.9932L21.1021 25.7714H20.3239L22.0001 21.9701H22.6885L24.3647 25.7714H23.5565L23.2273 24.9932H21.4613ZM21.7606 24.3048H22.9279L22.3592 22.9578L21.7606 24.3048Z" fill="white"/>
<path d="M23.5865 17.1809C20.9226 17.1809 18.7675 15.0258 18.7675 12.3619H19.4559C19.4559 14.6367 21.3117 16.4925 23.5865 16.4925C25.8613 16.4925 27.7171 14.6367 27.7171 12.3619H28.4355C28.4355 14.9959 26.2505 17.1809 23.5865 17.1809Z" fill="white"/>
</g>
<defs>
<clipPath id="clip0_18_675">
<rect width="152" height="44" fill="white"/>
</clipPath>
</defs>
</svg>
