<svg width="152" height="67" viewBox="0 0 152 67" fill="none" xmlns="http://www.w3.org/2000/svg">
<rect width="152" height="67" rx="9" fill="#4F4F4F"/>
<path d="M20.7927 60.165C19.9927 60.165 19.3327 60.065 18.8127 59.865C18.3027 59.655 17.8977 59.335 17.5977 58.905C17.2977 58.475 17.0877 57.93 16.9677 57.27C16.8577 56.6 16.8027 55.805 16.8027 54.885C16.8027 53.955 16.8577 53.16 16.9677 52.5C17.0877 51.83 17.2977 51.28 17.5977 50.85C17.8977 50.42 18.3077 50.1 18.8277 49.89C19.3577 49.68 20.0327 49.575 20.8527 49.575C21.1827 49.575 21.5277 49.595 21.8877 49.635C22.2477 49.675 22.5927 49.725 22.9227 49.785C23.2627 49.835 23.5527 49.89 23.7927 49.95L23.7327 51.6C23.5327 51.56 23.2827 51.525 22.9827 51.495C22.6827 51.455 22.3777 51.425 22.0677 51.405C21.7577 51.385 21.4677 51.375 21.1977 51.375C20.7177 51.375 20.3277 51.435 20.0277 51.555C19.7277 51.675 19.4927 51.875 19.3227 52.155C19.1627 52.435 19.0527 52.8 18.9927 53.25C18.9327 53.69 18.9027 54.235 18.9027 54.885C18.9027 55.525 18.9327 56.07 18.9927 56.52C19.0527 56.96 19.1627 57.32 19.3227 57.6C19.4827 57.87 19.7127 58.07 20.0127 58.2C20.3227 58.32 20.7227 58.38 21.2127 58.38C21.6127 58.38 22.0527 58.36 22.5327 58.32C23.0227 58.27 23.4277 58.225 23.7477 58.185L23.7927 59.82C23.5527 59.87 23.2677 59.925 22.9377 59.985C22.6077 60.035 22.2577 60.075 21.8877 60.105C21.5177 60.145 21.1527 60.165 20.7927 60.165ZM30.1065 60.165C29.0165 60.165 28.1515 59.975 27.5115 59.595C26.8815 59.205 26.4265 58.62 26.1465 57.84C25.8765 57.06 25.7415 56.085 25.7415 54.915C25.7415 53.735 25.8765 52.75 26.1465 51.96C26.4265 51.17 26.8815 50.575 27.5115 50.175C28.1515 49.775 29.0165 49.575 30.1065 49.575C31.1965 49.575 32.0565 49.775 32.6865 50.175C33.3265 50.575 33.7815 51.17 34.0515 51.96C34.3315 52.75 34.4715 53.735 34.4715 54.915C34.4715 56.105 34.3315 57.09 34.0515 57.87C33.7815 58.65 33.3265 59.23 32.6865 59.61C32.0565 59.98 31.1965 60.165 30.1065 60.165ZM30.1065 58.425C30.7365 58.425 31.2115 58.3 31.5315 58.05C31.8615 57.79 32.0815 57.4 32.1915 56.88C32.3015 56.35 32.3565 55.695 32.3565 54.915C32.3565 54.135 32.2965 53.48 32.1765 52.95C32.0665 52.41 31.8515 52.005 31.5315 51.735C31.2115 51.455 30.7365 51.315 30.1065 51.315C29.4865 51.315 29.0115 51.455 28.6815 51.735C28.3615 52.005 28.1415 52.41 28.0215 52.95C27.9015 53.48 27.8415 54.135 27.8415 54.915C27.8415 55.685 27.8965 56.33 28.0065 56.85C28.1265 57.37 28.3465 57.765 28.6665 58.035C28.9965 58.295 29.4765 58.425 30.1065 58.425ZM37.0324 60V49.755H40.3624L42.4324 56.595L44.4574 49.755H47.8324V60H45.7624V52.41H45.5524L43.4074 59.73H41.4574L39.3124 52.41H39.1024V60H37.0324ZM50.7179 60V49.755H52.7879V60H50.7179ZM55.6877 60V49.755H58.3877L61.6727 56.955H61.9427V49.755H64.0127V60H61.3427L58.0277 52.68H57.7577V60H55.6877ZM70.8726 60.15C70.0126 60.15 69.3026 60.04 68.7426 59.82C68.1826 59.59 67.7426 59.255 67.4226 58.815C67.1126 58.365 66.8926 57.815 66.7626 57.165C66.6326 56.505 66.5676 55.745 66.5676 54.885C66.5676 53.975 66.6376 53.19 66.7776 52.53C66.9276 51.86 67.1676 51.31 67.4976 50.88C67.8376 50.44 68.2776 50.115 68.8176 49.905C69.3676 49.685 70.0426 49.575 70.8426 49.575C71.2526 49.575 71.6776 49.6 72.1176 49.65C72.5676 49.69 72.9926 49.745 73.3926 49.815C73.8026 49.885 74.1426 49.955 74.4126 50.025L74.3826 51.645C74.1026 51.595 73.7626 51.55 73.3626 51.51C72.9726 51.47 72.5726 51.44 72.1626 51.42C71.7526 51.39 71.3826 51.375 71.0526 51.375C70.5526 51.375 70.1426 51.44 69.8226 51.57C69.5126 51.7 69.2726 51.91 69.1026 52.2C68.9426 52.48 68.8326 52.845 68.7726 53.295C68.7126 53.735 68.6826 54.265 68.6826 54.885C68.6826 55.675 68.7376 56.335 68.8476 56.865C68.9676 57.385 69.1926 57.77 69.5226 58.02C69.8626 58.27 70.3476 58.395 70.9776 58.395C71.1376 58.395 71.3076 58.39 71.4876 58.38C71.6776 58.37 71.8576 58.355 72.0276 58.335C72.2076 58.315 72.3576 58.295 72.4776 58.275V56.04H71.2626V54.465H74.4426V59.76C74.2226 59.79 73.9576 59.83 73.6476 59.88C73.3376 59.92 73.0126 59.96 72.6726 60C72.3426 60.04 72.0176 60.075 71.6976 60.105C71.3876 60.135 71.1126 60.15 70.8726 60.15ZM84.7371 60.165C84.3571 60.165 83.9421 60.14 83.4921 60.09C83.0421 60.05 82.6021 60 82.1721 59.94C81.7521 59.87 81.3921 59.81 81.0921 59.76L81.2271 58.125C81.5371 58.165 81.8971 58.21 82.3071 58.26C82.7171 58.3 83.1221 58.335 83.5221 58.365C83.9321 58.395 84.2871 58.41 84.5871 58.41C85.1571 58.41 85.5721 58.3 85.8321 58.08C86.0921 57.85 86.2221 57.495 86.2221 57.015C86.2221 56.755 86.1671 56.55 86.0571 56.4C85.9571 56.24 85.7721 56.115 85.5021 56.025C85.2321 55.925 84.8571 55.83 84.3771 55.74C83.5771 55.59 82.9271 55.405 82.4271 55.185C81.9371 54.965 81.5771 54.655 81.3471 54.255C81.1271 53.855 81.0171 53.32 81.0171 52.65C81.0171 51.87 81.1621 51.26 81.4521 50.82C81.7421 50.37 82.1571 50.05 82.6971 49.86C83.2371 49.67 83.8721 49.575 84.6021 49.575C84.9321 49.575 85.3071 49.595 85.7271 49.635C86.1571 49.665 86.5771 49.705 86.9871 49.755C87.4071 49.805 87.7621 49.86 88.0521 49.92L87.9621 51.57C87.6621 51.53 87.3121 51.495 86.9121 51.465C86.5221 51.425 86.1321 51.39 85.7421 51.36C85.3621 51.33 85.0371 51.315 84.7671 51.315C84.1971 51.315 83.7771 51.405 83.5071 51.585C83.2371 51.765 83.1021 52.055 83.1021 52.455C83.1021 52.755 83.1621 52.985 83.2821 53.145C83.4021 53.305 83.6021 53.435 83.8821 53.535C84.1721 53.635 84.5671 53.74 85.0671 53.85C85.6571 53.98 86.1571 54.12 86.5671 54.27C86.9871 54.42 87.3221 54.6 87.5721 54.81C87.8321 55.02 88.0221 55.29 88.1421 55.62C88.2621 55.95 88.3221 56.365 88.3221 56.865C88.3221 57.665 88.1771 58.31 87.8871 58.8C87.6071 59.28 87.1971 59.63 86.6571 59.85C86.1271 60.06 85.4871 60.165 84.7371 60.165ZM94.792 60.165C93.702 60.165 92.837 59.975 92.197 59.595C91.567 59.205 91.112 58.62 90.832 57.84C90.562 57.06 90.427 56.085 90.427 54.915C90.427 53.735 90.562 52.75 90.832 51.96C91.112 51.17 91.567 50.575 92.197 50.175C92.837 49.775 93.702 49.575 94.792 49.575C95.882 49.575 96.742 49.775 97.372 50.175C98.012 50.575 98.467 51.17 98.737 51.96C99.017 52.75 99.157 53.735 99.157 54.915C99.157 56.105 99.017 57.09 98.737 57.87C98.467 58.65 98.012 59.23 97.372 59.61C96.742 59.98 95.882 60.165 94.792 60.165ZM94.792 58.425C95.422 58.425 95.897 58.3 96.217 58.05C96.547 57.79 96.767 57.4 96.877 56.88C96.987 56.35 97.042 55.695 97.042 54.915C97.042 54.135 96.982 53.48 96.862 52.95C96.752 52.41 96.537 52.005 96.217 51.735C95.897 51.455 95.422 51.315 94.792 51.315C94.172 51.315 93.697 51.455 93.367 51.735C93.047 52.005 92.827 52.41 92.707 52.95C92.587 53.48 92.527 54.135 92.527 54.915C92.527 55.685 92.582 56.33 92.692 56.85C92.812 57.37 93.032 57.765 93.352 58.035C93.682 58.295 94.162 58.425 94.792 58.425ZM105.753 60.165C104.663 60.165 103.798 59.975 103.158 59.595C102.528 59.205 102.073 58.62 101.793 57.84C101.523 57.06 101.388 56.085 101.388 54.915C101.388 53.735 101.523 52.75 101.793 51.96C102.073 51.17 102.528 50.575 103.158 50.175C103.798 49.775 104.663 49.575 105.753 49.575C106.843 49.575 107.703 49.775 108.333 50.175C108.973 50.575 109.428 51.17 109.698 51.96C109.978 52.75 110.118 53.735 110.118 54.915C110.118 56.105 109.978 57.09 109.698 57.87C109.428 58.65 108.973 59.23 108.333 59.61C107.703 59.98 106.843 60.165 105.753 60.165ZM105.753 58.425C106.383 58.425 106.858 58.3 107.178 58.05C107.508 57.79 107.728 57.4 107.838 56.88C107.948 56.35 108.003 55.695 108.003 54.915C108.003 54.135 107.943 53.48 107.823 52.95C107.713 52.41 107.498 52.005 107.178 51.735C106.858 51.455 106.383 51.315 105.753 51.315C105.133 51.315 104.658 51.455 104.328 51.735C104.008 52.005 103.788 52.41 103.668 52.95C103.548 53.48 103.488 54.135 103.488 54.915C103.488 55.685 103.543 56.33 103.653 56.85C103.773 57.37 103.993 57.765 104.313 58.035C104.643 58.295 105.123 58.425 105.753 58.425ZM112.679 60V49.755H115.379L118.664 56.955H118.934V49.755H121.004V60H118.334L115.019 52.68H114.749V60H112.679ZM123.724 60V57.78H125.809V60H123.724ZM128.357 60V57.78H130.442V60H128.357ZM132.989 60V57.78H135.074V60H132.989Z" fill="white"/>
<g clip-path="url(#clip0_170_14908)">
<path d="M152 39.5894C152 40.169 151.887 40.7429 151.667 41.2783C151.447 41.8138 151.124 42.3002 150.718 42.7098C150.311 43.1194 149.829 43.4442 149.298 43.6656C148.767 43.887 148.198 44.0006 147.623 44H4.38275C3.22178 44.0012 2.10786 43.5373 1.28597 42.7102C0.464079 41.883 0.00151302 40.7605 0 39.5894V4.41636C0.00151232 3.24474 0.463896 2.12161 1.28562 1.29358C2.10735 0.465556 3.22126 0.000311746 4.38275 7.62939e-06H147.622C148.197 7.60967e-06 148.766 0.114248 149.297 0.336205C149.828 0.558162 150.311 0.883486 150.717 1.2936C151.124 1.70371 151.446 2.19057 151.666 2.72638C151.886 3.26219 151.999 3.83645 151.999 4.41636L152 39.5894Z" fill="black"/>
<path d="M33.9626 21.7567C33.9291 18.0313 37.0138 16.2188 37.1548 16.1345C35.4078 13.588 32.7 13.2401 31.7485 13.2124C29.4742 12.9731 27.2682 14.5729 26.1097 14.5729C24.9281 14.5729 23.1441 13.2355 21.2213 13.2748C18.7471 13.3129 16.4324 14.7451 15.1629 16.969C12.5429 21.5036 14.4969 28.1672 17.007 31.8326C18.2626 33.6288 19.7298 35.632 21.6503 35.5615C23.5291 35.4852 24.2309 34.3651 26.4982 34.3651C28.7447 34.3651 29.4037 35.5615 31.3623 35.5164C33.3787 35.4852 34.6482 33.7132 35.8599 31.9019C37.3109 29.8456 37.8937 27.8182 37.9168 27.7141C37.8705 27.698 34.0019 26.2207 33.9626 21.7567ZM30.2628 10.8012C31.2733 9.5378 31.9647 7.819 31.7728 6.07476C30.3102 6.13949 28.4811 7.08616 27.4278 8.32181C26.4959 9.41065 25.6634 11.1953 25.8785 12.8737C27.5214 12.9962 29.2083 12.0449 30.2628 10.8012Z" fill="white"/>
<path d="M61.1759 35.3037H58.5502L57.1119 30.7853H52.1125L50.7424 35.3037H48.186L53.1403 19.9211H56.1996L61.1759 35.3037ZM56.6783 28.8897L55.3776 24.873C55.24 24.4626 54.981 23.4963 54.6018 21.9752H54.5555C54.4029 22.6294 54.1589 23.5957 53.8248 24.873L52.546 28.8897H56.6783ZM73.8917 29.6214C73.8917 31.5078 73.3795 32.9989 72.354 34.0935C71.4359 35.0679 70.2948 35.5545 68.9339 35.5545C67.4644 35.5545 66.4077 35.0309 65.766 33.9814V39.8013H63.301V27.8575C63.301 26.6727 63.2697 25.4578 63.2096 24.2118H65.3775L65.5151 25.9699H65.5613C66.3834 24.6453 67.6309 23.9829 69.3051 23.9829C70.6139 23.9829 71.7065 24.4996 72.5806 25.5341C73.4535 26.571 73.8917 27.9326 73.8917 29.6214ZM71.3805 29.7115C71.3805 28.6319 71.1377 27.7419 70.6497 27.0403C70.1167 26.3109 69.401 25.9456 68.5038 25.9456C67.8957 25.9456 67.343 26.1491 66.8493 26.5502C66.3545 26.9547 66.0307 27.483 65.8793 28.1372C65.8117 28.3819 65.7732 28.6337 65.7648 28.8874V30.7379C65.7648 31.5436 66.0122 32.2244 66.5071 32.7816C67.0019 33.3364 67.6448 33.6149 68.4356 33.6149C69.364 33.6149 70.0867 33.2555 70.6035 32.5423C71.1215 31.8268 71.3805 30.8836 71.3805 29.7115ZM86.6526 29.6214C86.6526 31.5078 86.1404 32.9989 85.1149 34.0935C84.1957 35.0679 83.0557 35.5545 81.6937 35.5545C80.2242 35.5545 79.1674 35.0309 78.5257 33.9814V39.8013H76.0607V27.8575C76.0607 26.6727 76.0295 25.4578 75.9694 24.2118H78.1373L78.2748 25.9699H78.3211C79.142 24.6453 80.3895 23.9829 82.0648 23.9829C83.3725 23.9829 84.4651 24.4996 85.3415 25.5341C86.2133 26.571 86.6526 27.9326 86.6526 29.6214ZM84.1402 29.7115C84.1402 28.6319 83.8963 27.7419 83.4083 27.0403C82.8753 26.3109 82.162 25.9456 81.2648 25.9456C80.6566 25.9456 80.1039 26.1491 79.6079 26.5502C79.1131 26.9547 78.7905 27.483 78.639 28.1372C78.5639 28.4423 78.5234 28.6909 78.5234 28.8874V30.7379C78.5234 31.5436 78.772 32.2244 79.2645 32.7816C79.7594 33.3352 80.4022 33.6149 81.1954 33.6149C82.125 33.6149 82.8476 33.2555 83.3633 32.5423C83.8812 31.8268 84.1402 30.8836 84.1402 29.7115ZM100.92 30.9888C100.92 32.2984 100.462 33.363 99.5523 34.1848C98.551 35.0818 97.1532 35.5314 95.3611 35.5314C93.7054 35.5314 92.3781 35.2124 91.3768 34.5732L91.9468 32.5192C93.0279 33.1595 94.2153 33.4785 95.5079 33.4785C96.4375 33.4785 97.1601 33.2682 97.6758 32.8509C98.1926 32.4325 98.4539 31.873 98.4539 31.1749C98.4539 30.5495 98.2377 30.0259 97.8134 29.5994C97.3867 29.174 96.6815 28.7776 95.6906 28.4134C92.9967 27.409 91.6485 25.9398 91.6485 24.0072C91.6485 22.745 92.1249 21.7116 93.0753 20.9036C94.0257 20.0968 95.2859 19.6934 96.8537 19.6934C98.2539 19.6934 99.4205 19.9373 100.347 20.4239L99.728 22.4329C98.8563 21.9613 97.8723 21.7255 96.7716 21.7255C95.9022 21.7255 95.22 21.9393 94.7321 22.3647C94.3217 22.745 94.1135 23.2085 94.1135 23.7587C94.1135 24.3655 94.3506 24.8695 94.8223 25.2648C95.2316 25.6289 95.9785 26.0254 97.0584 26.4507C98.3834 26.9848 99.3569 27.6066 99.9801 28.321C100.608 29.0353 100.92 29.9265 100.92 30.9888ZM109.091 26.0612H106.374V31.4465C106.374 32.8162 106.852 33.4994 107.812 33.4994C108.253 33.4994 108.618 33.4624 108.907 33.3849L108.975 35.2563C108.49 35.4378 107.85 35.5291 107.058 35.5291C106.085 35.5291 105.324 35.232 104.775 34.6379C104.228 34.0438 103.953 33.0486 103.953 31.6476V26.0566H102.334V24.2072H103.953V22.1763L106.374 21.4458V24.2072H109.091V26.0612ZM121.326 29.6664C121.326 31.3714 120.838 32.7711 119.864 33.8658C118.846 34.9928 117.491 35.5545 115.801 35.5545C114.171 35.5545 112.875 35.0147 111.909 33.9363C110.942 32.8555 110.459 31.4939 110.459 29.8514C110.459 28.1326 110.958 26.7247 111.954 25.6301C112.951 24.5343 114.295 23.9864 115.984 23.9864C117.612 23.9864 118.92 24.5274 119.909 25.607C120.855 26.6542 121.326 28.0066 121.326 29.6664ZM118.771 29.7231C118.771 28.707 118.551 27.8355 118.11 27.1061C117.594 26.2254 116.854 25.785 115.895 25.785C114.908 25.785 114.15 26.2254 113.635 27.1061C113.193 27.8355 112.973 28.7221 112.973 29.7693C112.973 30.7865 113.193 31.6603 113.635 32.3874C114.168 33.2682 114.911 33.7086 115.874 33.7086C116.817 33.7086 117.555 33.2589 118.09 32.3654C118.543 31.6187 118.771 30.7414 118.771 29.7231ZM129.342 26.3791C129.085 26.3328 128.825 26.31 128.565 26.3109C127.698 26.3109 127.027 26.6368 126.555 27.2934C126.146 27.8713 125.94 28.6019 125.94 29.4838V35.3037H123.475V27.7049C123.477 26.5405 123.453 25.3762 123.403 24.213H125.55L125.641 26.3352H125.709C125.97 25.6058 126.379 25.0174 126.941 24.5771C127.456 24.1922 128.081 23.9838 128.723 23.9829C128.951 23.9829 129.157 23.9991 129.339 24.028L129.342 26.3791ZM140.366 29.233C140.372 29.6076 140.342 29.9819 140.276 30.3507H132.881C132.908 31.4465 133.267 32.2857 133.954 32.8636C134.577 33.3791 135.383 33.6381 136.372 33.6381C137.467 33.6381 138.466 33.4647 139.365 33.1144L139.751 34.824C138.701 35.2817 137.462 35.5094 136.031 35.5094C134.311 35.5094 132.961 35.0032 131.978 33.9929C130.997 32.9815 130.506 31.6222 130.506 29.9196C130.506 28.2482 130.963 26.8553 131.877 25.7445C132.835 24.5586 134.128 23.9656 135.756 23.9656C137.355 23.9656 138.566 24.5586 139.388 25.7445C140.039 26.6842 140.366 27.8494 140.366 29.233ZM138.015 28.5938C138.033 27.8621 137.871 27.2321 137.537 26.6993C137.11 26.0127 136.453 25.6705 135.574 25.6705C134.768 25.6705 134.111 26.0046 133.611 26.675C133.201 27.2079 132.957 27.8482 132.882 28.5915L138.015 28.5938Z" fill="white"/>
<path d="M51.4015 14.4827C50.7158 14.4827 50.1227 14.4492 49.629 14.3925V6.95554C50.3195 6.84891 51.0173 6.79635 51.716 6.79834C54.5429 6.79834 55.8447 8.18888 55.8447 10.4556C55.8447 13.0702 54.307 14.4827 51.4015 14.4827ZM51.8154 7.75195C51.4338 7.75195 51.109 7.77507 50.8396 7.83055V13.484C50.9852 13.5071 51.265 13.5175 51.6581 13.5175C53.5104 13.5175 54.5648 12.4634 54.5648 10.4891C54.5648 8.72868 53.611 7.75195 51.8154 7.75195ZM59.9018 14.5393C58.3086 14.5393 57.2761 13.3499 57.2761 11.7351C57.2761 10.0522 58.3305 8.85236 59.992 8.85236C61.5621 8.85236 62.6177 9.98513 62.6177 11.6461C62.6177 13.3499 61.5297 14.5393 59.9018 14.5393ZM59.9481 9.73777C59.0728 9.73777 58.5121 10.5561 58.5121 11.7005C58.5121 12.8228 59.0844 13.6412 59.9365 13.6412C60.7886 13.6412 61.3609 12.7662 61.3609 11.6773C61.3609 10.5677 60.8002 9.73777 59.9481 9.73777ZM71.7031 8.96448L69.9977 14.4156H68.8866L68.1802 12.0484C68.0045 11.4693 67.8583 10.8818 67.742 10.288H67.7188C67.6298 10.8821 67.461 11.4774 67.2818 12.0484L66.5303 14.4156H65.4076L63.8028 8.96448H65.048L65.6654 11.556C65.8111 12.1732 65.9337 12.7558 66.0354 13.306H66.0585C66.1476 12.8471 66.2933 12.2738 66.5072 11.5675L67.2818 8.96563H68.2692L69.0103 11.5121C69.1895 12.1293 69.3352 12.735 69.4485 13.3071H69.4809C69.5595 12.7465 69.6832 12.1513 69.8509 11.5121L70.5134 8.96563L71.7031 8.96448ZM77.9812 14.4156H76.7695V11.2855C76.7695 10.3215 76.3995 9.83833 75.67 9.83833C74.952 9.83833 74.4583 10.4556 74.4583 11.1734V14.4156H73.2466V10.5226C73.2466 10.0406 73.235 9.52393 73.2015 8.96332H74.2675L74.3242 9.80481H74.3577C74.6838 9.22224 75.3451 8.85236 76.0862 8.85236C77.2309 8.85236 77.9824 9.72736 77.9824 11.1514L77.9812 14.4156ZM81.3226 14.4156H80.1098V6.46313H81.3226V14.4156ZM85.7404 14.5393C84.1484 14.5393 83.1147 13.3499 83.1147 11.7351C83.1147 10.0522 84.1692 8.85236 85.8295 8.85236C87.4007 8.85236 88.4552 9.98513 88.4552 11.6461C88.4563 13.3499 87.3672 14.5393 85.7404 14.5393ZM85.7855 9.73777C84.9103 9.73777 84.3495 10.5561 84.3495 11.7005C84.3495 12.8228 84.923 13.6412 85.7728 13.6412C86.6261 13.6412 87.1972 12.7662 87.1972 11.6773C87.1984 10.5677 86.6388 9.73777 85.7855 9.73777ZM93.2326 14.4156L93.1447 13.788H93.1123C92.7424 14.2931 92.2024 14.5393 91.5179 14.5393C90.541 14.5393 89.8472 13.855 89.8472 12.935C89.8472 11.5895 91.0138 10.8937 93.0337 10.8937V10.7931C93.0337 10.0753 92.6533 9.7158 91.9018 9.7158C91.3642 9.7158 90.8924 9.85104 90.4774 10.1204L90.2311 9.32396C90.7352 9.00956 91.3642 8.85236 92.103 8.85236C93.5274 8.85236 94.2466 9.60368 94.2466 11.1075V13.1153C94.2466 13.6655 94.2708 14.092 94.3252 14.4168L93.2326 14.4156ZM93.0661 11.7005C91.7203 11.7005 91.0451 12.0264 91.0451 12.7997C91.0451 13.3719 91.3931 13.6516 91.8764 13.6516C92.4926 13.6516 93.0661 13.1812 93.0661 12.542V11.7005ZM100.13 14.4156L100.074 13.5406H100.04C99.6922 14.2018 99.1072 14.5393 98.2898 14.5393C96.9752 14.5393 96.0017 13.3834 96.0017 11.7571C96.0017 10.0522 97.011 8.8512 98.3892 8.8512C99.1188 8.8512 99.6356 9.0974 99.9269 9.59212H99.9512V6.46313H101.164V12.9465C101.164 13.4736 101.177 13.9672 101.209 14.4156H100.13ZM99.9512 11.2081C99.9512 10.4452 99.446 9.7944 98.6748 9.7944C97.7764 9.7944 97.2272 10.5908 97.2272 11.712C97.2272 12.8113 97.7972 13.5638 98.6505 13.5638C99.4124 13.5638 99.9512 12.9014 99.9512 12.1166V11.2081ZM108.854 14.5393C107.262 14.5393 106.229 13.3499 106.229 11.7351C106.229 10.0522 107.284 8.85236 108.944 8.85236C110.515 8.85236 111.57 9.98513 111.57 11.6461C111.571 13.3499 110.483 14.5393 108.854 14.5393ZM108.899 9.73777C108.025 9.73777 107.464 10.5561 107.464 11.7005C107.464 12.8228 108.036 13.6412 108.887 13.6412C109.741 13.6412 110.312 12.7662 110.312 11.6773C110.314 10.5677 109.753 9.73777 108.899 9.73777ZM118.086 14.4156H116.873V11.2855C116.873 10.3215 116.503 9.83833 115.774 9.83833C115.056 9.83833 114.563 10.4556 114.563 11.1734V14.4156H113.35V10.5226C113.35 10.0406 113.339 9.52393 113.305 8.96332H114.371L114.428 9.80481H114.461C114.786 9.22224 115.449 8.8512 116.189 8.8512C117.333 8.8512 118.086 9.72621 118.086 11.1503V14.4156ZM126.238 9.87301H124.905V12.52C124.905 13.1939 125.139 13.5302 125.611 13.5302C125.825 13.5302 126.004 13.5071 126.148 13.4736L126.182 14.3937C125.947 14.4838 125.633 14.5289 125.242 14.5289C124.287 14.5289 123.716 14.0018 123.716 12.6217V9.87301H122.92V8.96448H123.716V7.96579L124.905 7.60631V8.96332H126.238V9.87301ZM132.653 14.4156H131.442V11.3086C131.442 10.333 131.074 9.83948 130.343 9.83948C129.715 9.83948 129.13 10.266 129.13 11.1295V14.4156H127.92V6.46313H129.13V9.73777H129.154C129.536 9.14364 130.089 8.8512 130.794 8.8512C131.948 8.8512 132.653 9.74817 132.653 11.1734V14.4156ZM139.225 11.9813H135.589C135.612 13.0136 136.295 13.5961 137.307 13.5961C137.844 13.5961 138.339 13.506 138.776 13.3384L138.965 14.1798C138.449 14.4041 137.842 14.5162 137.136 14.5162C135.43 14.5162 134.421 13.4389 134.421 11.7687C134.421 10.0972 135.454 8.8408 136.999 8.8408C138.392 8.8408 139.266 9.87301 139.266 11.4323C139.274 11.6163 139.26 11.8006 139.225 11.9813ZM138.114 11.1179C138.114 10.2764 137.689 9.68228 136.915 9.68228C136.219 9.68228 135.668 10.288 135.59 11.1179H138.114Z" fill="white"/>
</g>
<defs>
<clipPath id="clip0_170_14908">
<rect width="152" height="44" fill="white"/>
</clipPath>
</defs>
</svg>
