<svg width="874" height="508" viewBox="0 0 874 508" fill="none" xmlns="http://www.w3.org/2000/svg">
<mask id="mask0_18_738" style="mask-type:alpha" maskUnits="userSpaceOnUse" x="0" y="0" width="874" height="508">
<rect width="874" height="508" rx="85" fill="#FCEEE1"/>
</mask>
<g mask="url(#mask0_18_738)">
<path d="M639 320C639 220.589 558.411 140 459 140C359.589 140 279 220.589 279 320" stroke="#FFD8B4"/>
<path d="M576 320C576 384.617 523.617 437 459 437C394.383 437 342 384.617 342 320" stroke="#FFD8B4"/>
<path d="M523 320C523 284.654 494.346 256 459 256C423.654 256 395 284.654 395 320" stroke="#FFD8B4"/>
<path d="M999 320C999 419.411 918.411 500 819 500C719.589 500 639 419.411 639 320" stroke="#FFD8B4"/>
<path d="M936 320C936 255.383 883.617 203 819 203C754.383 203 702 255.383 702 320" stroke="#FFD8B4"/>
<path d="M883 320C883 355.346 854.346 384 819 384C783.654 384 755 355.346 755 320" stroke="#FFD8B4"/>
<path d="M279 320C279 419.411 198.411 500 99 500C-0.411255 500 -81 419.411 -81 320" stroke="#FFD8B4"/>
<path d="M216 320C216 255.383 163.617 203 99 203C34.3827 203 -18 255.383 -18 320" stroke="#FFD8B4"/>
<path d="M163 320C163 355.346 134.346 384 99 384C63.6538 384 35 355.346 35 320" stroke="#FFD8B4"/>
</g>
</svg>
