<svg width="76" height="70" viewBox="0 0 76 70" fill="none" xmlns="http://www.w3.org/2000/svg">
<path d="M67.8876 69.1985L55.3026 56.6135C49.8726 59.0885 43.9664 60.3297 38.0001 60.2622C31.8501 60.3372 25.7639 59.0097 20.2026 56.381C15.8926 54.2782 12.0224 51.374 8.79887 47.8235C5.37689 44.1555 2.6874 39.8673 0.875122 35.1897L0.500122 34.0122L0.893872 32.8272C3.60441 25.9133 8.16608 19.8791 14.0789 15.386L4.25012 5.55721L9.54887 0.262207L73.1826 63.896L67.8951 69.1985H67.8876V69.1985ZM19.3851 20.696C14.5923 24.0556 10.8076 28.6599 8.43887 34.0122C10.9211 39.7391 15.0662 44.5884 20.3371 47.9316C25.608 51.2748 31.7615 52.9577 38.0001 52.7622C41.937 52.7945 45.851 52.1606 49.5764 50.8872L42.8264 44.1372C41.3264 44.8722 39.6764 45.2585 38.0001 45.2622C35.0222 45.2435 32.1716 44.0523 30.0658 41.9465C27.9601 39.8408 26.7688 36.9901 26.7501 34.0122C26.7501 32.336 27.1364 30.6822 27.8751 29.1747L19.3851 20.696ZM67.4451 47.5497L62.2251 42.3335C64.4212 39.8506 66.2211 37.0439 67.5614 34.0122C65.0825 28.2828 60.9382 23.4312 55.6665 20.0875C50.3949 16.7438 44.2396 15.0626 38.0001 15.2622C37.0739 15.2622 36.1439 15.296 35.2439 15.3597L28.6251 8.73346C31.7076 8.07346 34.8501 7.74721 38.0001 7.76221C44.1501 7.68721 50.2364 9.01471 55.7976 11.6435C60.1101 13.7435 63.9764 16.6497 67.2014 20.201C70.6217 23.8646 73.3111 28.1475 75.1251 32.8197L75.5001 34.0122L75.1064 35.1972C73.3507 39.765 70.7533 43.9627 67.4489 47.5722L67.4451 47.5497V47.5497Z" fill="#474C4D"/>
</svg>
