<svg width="20" height="19" viewBox="0 0 20 19" fill="none" xmlns="http://www.w3.org/2000/svg">
<path d="M17.97 18.885L14.614 15.529C13.166 16.189 11.591 16.52 10 16.502C8.36 16.522 6.737 16.168 5.254 15.467C4.10467 14.9062 3.07262 14.1318 2.213 13.185C1.30047 12.2068 0.583275 11.0633 0.0999999 9.81595L0 9.50195L0.105 9.18595C0.82781 7.34224 2.04426 5.73312 3.621 4.53495L1 1.91395L2.413 0.501953L19.382 17.471L17.972 18.885H17.97ZM5.036 5.95095C3.75792 6.84687 2.74865 8.07466 2.117 9.50195C2.77892 11.0291 3.8843 12.3223 5.28986 13.2138C6.69542 14.1053 8.33636 14.5541 10 14.502C11.0498 14.5106 12.0936 14.3415 13.087 14.002L11.287 12.202C10.887 12.398 10.447 12.501 10 12.502C9.20589 12.497 8.44572 12.1793 7.88418 11.6178C7.32265 11.0562 7.00498 10.2961 7 9.50195C7 9.05495 7.103 8.61395 7.3 8.21195L5.036 5.95095ZM17.852 13.112L16.46 11.721C17.0456 11.0589 17.5256 10.3104 17.883 9.50195C17.222 7.97411 16.1168 6.68035 14.711 5.7887C13.3053 4.89705 11.6639 4.44872 10 4.50195C9.753 4.50195 9.505 4.51095 9.265 4.52795L7.5 2.76095C8.322 2.58495 9.16 2.49795 10 2.50195C11.64 2.48195 13.263 2.83595 14.746 3.53695C15.896 4.09695 16.927 4.87195 17.787 5.81895C18.6991 6.79592 19.4163 7.93803 19.9 9.18395L20 9.50195L19.895 9.81795C19.4268 11.036 18.7342 12.1554 17.853 13.118L17.852 13.112Z" fill="black"/>
</svg>
