<svg width="152" height="44" viewBox="0 0 152 44" fill="none" xmlns="http://www.w3.org/2000/svg">
<g clip-path="url(#clip0_18_644)">
<path d="M146.37 44H5.62963C2.47704 44 0 41.47 0 38.5V5.50005C0 2.42005 2.58963 4.57764e-05 5.62963 4.57764e-05H146.37C149.523 4.57764e-05 152 2.53005 152 5.50005V38.5C152 41.58 149.41 44 146.37 44Z" fill="black"/>
<path d="M52.1198 11.192C52.1198 12.0698 51.9004 12.8379 51.3517 13.3865C50.6934 14.0449 49.9253 14.3741 48.9378 14.3741C47.9502 14.3741 47.1821 14.0449 46.5238 13.3865C45.8654 12.7282 45.5363 11.9601 45.5363 10.9726C45.5363 9.98504 45.8654 9.21696 46.5238 8.55861C47.1821 7.90025 47.9502 7.57108 48.9378 7.57108C49.3767 7.57108 49.8156 7.6808 50.2545 7.90025C50.6934 8.1197 51.0225 8.33916 51.242 8.66833L50.6934 9.21696C50.2545 8.66833 49.7058 8.44888 48.9378 8.44888C48.2794 8.44888 47.621 8.66833 47.1821 9.21696C46.6335 9.65586 46.4141 10.3142 46.4141 11.0823C46.4141 11.8504 46.6335 12.5087 47.1821 12.9476C47.7308 13.3865 48.2794 13.7157 48.9378 13.7157C49.7058 13.7157 50.2545 13.4963 50.8031 12.9476C51.1323 12.6185 51.3517 12.1796 51.3517 11.6309H48.9378V10.7531H52.1198C52.1198 10.8628 52.1198 11.0823 52.1198 11.192Z" fill="white" stroke="white" stroke-width="0.219452" stroke-miterlimit="10"/>
<path d="M57.1672 8.44889H54.2046V10.5337H56.9477V11.3018H54.2046V13.3866H57.1672V14.2644H53.3268V7.68081H57.1672V8.44889Z" fill="white" stroke="white" stroke-width="0.219452" stroke-miterlimit="10"/>
<path d="M60.6784 14.2644H59.8006V8.44889H57.9353V7.68081H62.5438V8.44889H60.6784V14.2644Z" fill="white" stroke="white" stroke-width="0.219452" stroke-miterlimit="10"/>
<path d="M65.8356 14.2644V7.68081H66.7134V14.2644H65.8356Z" fill="white" stroke="white" stroke-width="0.219452" stroke-miterlimit="10"/>
<path d="M70.4439 14.2644H69.5661V8.44889H67.7008V7.68081H72.1996V8.44889H70.3342V14.2644H70.4439Z" fill="white" stroke="white" stroke-width="0.219452" stroke-miterlimit="10"/>
<path d="M80.868 13.3865C80.2096 14.0449 79.4415 14.3741 78.454 14.3741C77.4665 14.3741 76.6984 14.0449 76.04 13.3865C75.3817 12.7282 75.0525 11.9601 75.0525 10.9726C75.0525 9.98504 75.3817 9.21696 76.04 8.55861C76.6984 7.90025 77.4665 7.57108 78.454 7.57108C79.4415 7.57108 80.2096 7.90025 80.868 8.55861C81.5263 9.21696 81.8555 9.98504 81.8555 10.9726C81.7458 11.9601 81.5263 12.7282 80.868 13.3865ZM76.5887 12.8379C77.0276 13.2768 77.6859 13.606 78.3443 13.606C79.0026 13.606 79.661 13.3865 80.0999 12.8379C80.5388 12.399 80.868 11.7407 80.868 10.9726C80.868 10.2045 80.6485 9.54614 80.0999 9.10724C79.661 8.66833 79.0026 8.33916 78.3443 8.33916C77.6859 8.33916 77.0276 8.55861 76.5887 9.10724C76.1497 9.54614 75.8206 10.2045 75.8206 10.9726C75.9303 11.7407 76.1497 12.399 76.5887 12.8379Z" fill="white" stroke="white" stroke-width="0.219452" stroke-miterlimit="10"/>
<path d="M82.9528 14.2644V7.68081H83.9403L87.1223 12.8379V11.5212V7.68081H88.0001V14.2644H87.1223L83.7208 8.88779V10.2045V14.2644H82.9528Z" fill="white" stroke="white" stroke-width="0.219452" stroke-miterlimit="10"/>
<path d="M74.833 23.9202C72.1996 23.9202 70.1148 25.8953 70.1148 28.6384C70.1148 31.2719 72.1996 33.3567 74.833 33.3567C77.4664 33.3567 79.5512 31.3816 79.5512 28.6384C79.5512 25.7856 77.3567 23.9202 74.833 23.9202ZM74.833 31.3816C73.4066 31.3816 72.1996 30.1746 72.1996 28.5287C72.1996 26.8828 73.4066 25.6758 74.833 25.6758C76.2594 25.6758 77.4664 26.7731 77.4664 28.5287C77.4664 30.1746 76.2594 31.3816 74.833 31.3816ZM64.6285 23.9202C61.9951 23.9202 59.9103 25.8953 59.9103 28.6384C59.9103 31.2719 61.9951 33.3567 64.6285 33.3567C67.2619 33.3567 69.3467 31.3816 69.3467 28.6384C69.237 25.7856 67.1522 23.9202 64.6285 23.9202ZM64.6285 31.3816C63.2021 31.3816 61.9951 30.1746 61.9951 28.5287C61.9951 26.8828 63.2021 25.6758 64.6285 25.6758C66.0549 25.6758 67.2619 26.7731 67.2619 28.5287C67.2619 30.1746 66.0549 31.3816 64.6285 31.3816ZM52.4489 25.3467V27.3217H57.1671C57.0574 28.419 56.6185 29.2968 56.0699 29.8454C55.4115 30.5038 54.3143 31.2719 52.4489 31.2719C49.4863 31.2719 47.2918 28.9676 47.2918 26.005C47.2918 23.0424 49.5961 20.7382 52.4489 20.7382C53.9851 20.7382 55.1921 21.3965 56.0699 22.1646L57.4963 20.7382C56.2893 19.6409 54.7532 18.7631 52.5587 18.7631C48.6085 18.7631 45.207 22.0549 45.207 26.005C45.207 29.9552 48.6085 33.2469 52.5587 33.2469C54.7532 33.2469 56.2893 32.5886 57.606 31.1621C58.9228 29.8454 59.3617 27.9801 59.3617 26.5537C59.3617 26.1148 59.3617 25.6758 59.2519 25.3467H52.4489ZM102.155 26.8828C101.716 25.7856 100.619 23.9202 98.2046 23.9202C95.7906 23.9202 93.8156 25.7856 93.8156 28.6384C93.8156 31.2719 95.7906 33.3567 98.424 33.3567C100.509 33.3567 101.826 32.0399 102.264 31.2719L100.728 30.1746C100.18 30.9427 99.5213 31.4913 98.424 31.4913C97.3268 31.4913 96.6684 31.0524 96.1198 30.0649L102.374 27.4315L102.155 26.8828ZM95.7906 28.419C95.7906 26.6634 97.2171 25.6758 98.2046 25.6758C98.9727 25.6758 99.7407 26.1148 99.9602 26.6634L95.7906 28.419ZM90.7432 32.9178H92.828V19.202H90.7432V32.9178ZM87.3417 24.9078C86.7931 24.3591 85.9153 23.8105 84.818 23.8105C82.5138 23.8105 80.3193 25.8953 80.3193 28.5287C80.3193 31.1621 82.4041 33.1372 84.818 33.1372C85.9153 33.1372 86.7931 32.5886 87.232 32.0399H87.3417V32.6983C87.3417 34.4539 86.3542 35.4414 84.818 35.4414C83.6111 35.4414 82.7332 34.5636 82.5138 33.7956L80.7582 34.5636C81.3068 35.7706 82.6235 37.3068 84.9278 37.3068C87.3417 37.3068 89.3168 35.8803 89.3168 32.4788V24.1397H87.3417V24.9078ZM85.0375 31.3816C83.6111 31.3816 82.4041 30.1746 82.4041 28.5287C82.4041 26.8828 83.6111 25.6758 85.0375 25.6758C86.4639 25.6758 87.5612 26.8828 87.5612 28.5287C87.4515 30.1746 86.4639 31.3816 85.0375 31.3816ZM111.811 19.202H106.873V32.9178H108.958V27.7606H111.811C114.115 27.7606 116.309 26.1148 116.309 23.4813C116.309 20.8479 114.005 19.202 111.811 19.202ZM111.811 25.7856H108.848V21.0674H111.811C113.347 21.0674 114.225 22.3841 114.225 23.3716C114.225 24.5786 113.347 25.7856 111.811 25.7856ZM124.429 23.8105C122.893 23.8105 121.357 24.4689 120.808 25.8953L122.673 26.6634C123.112 25.8953 123.771 25.6758 124.539 25.6758C125.636 25.6758 126.624 26.3342 126.733 27.4315V27.5412C126.404 27.3217 125.526 26.9926 124.648 26.9926C122.673 26.9926 120.698 28.0898 120.698 30.0649C120.698 31.9302 122.344 33.1372 124.1 33.1372C125.526 33.1372 126.185 32.4788 126.733 31.8205H126.843V32.9178H128.818V27.6509C128.599 25.2369 126.843 23.8105 124.429 23.8105ZM124.21 31.3816C123.551 31.3816 122.564 31.0524 122.564 30.1746C122.564 29.0773 123.771 28.7482 124.758 28.7482C125.636 28.7482 126.075 28.9676 126.624 29.1871C126.514 30.5038 125.417 31.3816 124.21 31.3816ZM135.841 24.1397L133.536 30.0649H133.427L131.013 24.1397H128.818L132.439 32.4788L130.354 37.0873H132.439L138.035 24.1397H135.841ZM117.407 32.9178H119.491V19.202H117.407V32.9178Z" fill="white"/>
<path d="M11.5212 8.22945C11.192 8.55862 10.9725 9.10725 10.9725 9.76561V34.015C10.9725 34.6734 11.192 35.222 11.5212 35.5512L11.6309 35.6609L25.2369 22.0549V21.9452V21.8354L11.5212 8.22945Z" fill="url(#paint0_linear_18_644)"/>
<path d="M29.7357 26.6634L25.2369 22.0549V21.9452V21.8354L29.7357 17.3367L29.8454 17.4464L35.222 20.5187C36.7581 21.3965 36.7581 22.823 35.222 23.7008L29.7357 26.6634Z" fill="url(#paint1_linear_18_644)"/>
<path d="M29.8453 26.5537L25.2368 21.9452L11.5211 35.6609C12.0697 36.2095 12.8378 36.2095 13.8254 35.7706L29.8453 26.5537Z" fill="url(#paint2_linear_18_644)"/>
<path d="M29.8453 17.3367L13.8254 8.22943C12.8378 7.6808 12.0697 7.79053 11.5211 8.33916L25.2368 21.9452L29.8453 17.3367Z" fill="url(#paint3_linear_18_644)"/>
<path opacity="0.2" d="M29.7356 26.4439L13.8254 35.4414C12.9476 35.9901 12.1795 35.8803 11.6308 35.4414L11.5211 35.5512L11.6308 35.6609C12.1795 36.0998 12.9476 36.2095 13.8254 35.6609L29.7356 26.4439Z" fill="black"/>
<path opacity="0.12" d="M11.5212 35.4414C11.192 35.1123 10.9725 34.5636 10.9725 33.9053V34.015C10.9725 34.6734 11.192 35.222 11.5212 35.5512V35.4414Z" fill="black"/>
<path opacity="0.12" d="M35.2219 23.3716L29.7356 26.4439L29.8453 26.5537L35.2219 23.4813C35.99 23.0424 36.3191 22.4938 36.3191 21.9452C36.3191 22.4938 35.8802 22.9327 35.2219 23.3716Z" fill="black"/>
<path opacity="0.25" d="M13.8254 8.33916L35.2219 20.5187C35.8803 20.9576 36.3192 21.3965 36.3192 21.9452C36.3192 21.3965 35.99 20.8479 35.2219 20.409L13.8254 8.22943C12.2892 7.35162 10.9725 8.00998 10.9725 9.76559V9.87532C10.9725 8.22943 12.2892 7.46135 13.8254 8.33916Z" fill="white"/>
</g>
<defs>
<linearGradient id="paint0_linear_18_644" x1="23.9777" y1="9.55735" x2="5.56305" y2="27.972" gradientUnits="userSpaceOnUse">
<stop stop-color="#00A0FF"/>
<stop offset="0.00657445" stop-color="#00A1FF"/>
<stop offset="0.2601" stop-color="#00BEFF"/>
<stop offset="0.5122" stop-color="#00D2FF"/>
<stop offset="0.7604" stop-color="#00DFFF"/>
<stop offset="1" stop-color="#00E3FF"/>
</linearGradient>
<linearGradient id="paint1_linear_18_644" x1="37.1828" y1="21.9473" x2="10.6325" y2="21.9473" gradientUnits="userSpaceOnUse">
<stop stop-color="#FFE000"/>
<stop offset="0.4087" stop-color="#FFBD00"/>
<stop offset="0.7754" stop-color="#FFA500"/>
<stop offset="1" stop-color="#FF9C00"/>
</linearGradient>
<linearGradient id="paint2_linear_18_644" x1="27.2993" y1="24.4651" x2="2.32752" y2="49.4369" gradientUnits="userSpaceOnUse">
<stop stop-color="#FF3A44"/>
<stop offset="1" stop-color="#C31162"/>
</linearGradient>
<linearGradient id="paint3_linear_18_644" x1="8.06476" y1="0.193882" x2="19.2156" y2="11.3448" gradientUnits="userSpaceOnUse">
<stop stop-color="#32A071"/>
<stop offset="0.0685" stop-color="#2DA771"/>
<stop offset="0.4762" stop-color="#15CF74"/>
<stop offset="0.8009" stop-color="#06E775"/>
<stop offset="1" stop-color="#00F076"/>
</linearGradient>
<clipPath id="clip0_18_644">
<rect width="152" height="44" fill="white"/>
</clipPath>
</defs>
</svg>
