<svg width="475" height="483" viewBox="0 0 475 483" fill="none" xmlns="http://www.w3.org/2000/svg">
<circle cx="240.5" cy="233.57" r="182.433" stroke="#B4BFEA"/>
<circle opacity="0.5" cx="240.5" cy="233.5" r="233" stroke="#B4BFEA"/>
<path d="M366.408 233.5C366.408 303.036 310.038 359.406 240.502 359.406C170.966 359.406 114.596 303.036 114.596 233.5H366.408Z" fill="#D5C4F9"/>
<g filter="url(#filter0_d_18_901)">
<circle cx="244.999" cy="230.003" r="87.4347" fill="url(#paint0_linear_18_901)"/>
</g>
<g filter="url(#filter1_di_18_901)">
<path fill-rule="evenodd" clip-rule="evenodd" d="M277.898 187.534C268.097 187.534 257.228 193.257 257.228 230.502C257.228 267.747 268.093 273.47 277.898 273.47C281.037 273.47 283.212 272.646 284.646 271.766C286.113 270.861 286.821 269.119 286.387 267.439C285.3 263.247 282.96 254.201 281.876 250.006C281.52 248.628 280.453 247.571 279.089 247.22L272.174 245.45C270.626 245.054 269.482 243.762 269.287 242.161C268.951 239.394 268.495 234.851 268.495 230.498C268.495 226.145 268.951 221.602 269.287 218.835C269.482 217.234 270.626 215.941 272.174 215.545L279.089 213.775C280.455 213.427 281.524 212.354 281.88 210.976L286.382 193.578C286.817 191.893 286.109 190.134 284.635 189.231C283.206 188.352 281.031 187.532 277.898 187.534ZM213.099 187.534C209.966 187.532 207.791 188.352 206.362 189.231C204.961 190.089 204.253 191.72 204.558 193.325L204.614 193.578L209.117 210.976C209.451 212.268 210.411 213.291 211.656 213.702L211.908 213.775L218.823 215.545C220.371 215.941 221.515 217.234 221.71 218.835C222.046 221.602 222.502 226.145 222.502 230.498C222.502 234.851 222.046 239.394 221.71 242.161C221.525 243.678 220.489 244.917 219.064 245.38L218.823 245.45L211.908 247.22C210.544 247.571 209.477 248.628 209.121 250.006C208.037 254.201 205.697 263.247 204.61 267.439C204.176 269.119 204.883 270.861 206.351 271.766C207.785 272.646 209.96 273.47 213.099 273.47C222.904 273.47 233.769 267.747 233.769 230.502C233.769 193.257 222.9 187.534 213.099 187.534ZM245.498 224.412C241.931 224.412 239.04 227.334 239.04 230.938C239.04 234.542 241.931 237.464 245.498 237.464C249.065 237.464 251.956 234.542 251.956 230.938C251.956 227.334 249.065 224.412 245.498 224.412Z" fill="white"/>
</g>
<g filter="url(#filter2_d_18_901)">
<rect x="388.392" y="205.521" width="55.9582" height="55.9582" rx="27.9791" fill="#FB5B29" shape-rendering="crispEdges"/>
<g clip-path="url(#clip0_18_901)">
<path fill-rule="evenodd" clip-rule="evenodd" d="M421.786 235.882C421.488 235.733 420.027 235.015 419.755 234.915C419.483 234.816 419.285 234.767 419.086 235.065C418.888 235.361 418.319 236.031 418.146 236.229C417.972 236.428 417.799 236.452 417.502 236.304C417.205 236.154 416.247 235.841 415.112 234.829C414.229 234.041 413.632 233.068 413.459 232.77C413.286 232.473 413.44 232.312 413.589 232.164C413.723 232.031 413.886 231.817 414.035 231.644C414.184 231.47 414.233 231.346 414.332 231.147C414.432 230.949 414.382 230.776 414.307 230.627C414.233 230.478 413.639 229.015 413.391 228.42C413.15 227.841 412.905 227.92 412.723 227.91C412.549 227.902 412.351 227.9 412.153 227.9C411.955 227.9 411.633 227.974 411.361 228.272C411.088 228.569 410.321 229.288 410.321 230.751C410.321 232.213 411.385 233.626 411.534 233.825C411.683 234.023 413.629 237.025 416.61 238.312C417.32 238.618 417.873 238.801 418.304 238.937C419.016 239.164 419.664 239.132 420.176 239.055C420.746 238.97 421.934 238.336 422.182 237.642C422.429 236.948 422.429 236.353 422.355 236.229C422.281 236.105 422.083 236.031 421.785 235.882H421.786ZM416.364 243.285H416.36C414.589 243.285 412.851 242.809 411.328 241.907L410.968 241.693L407.226 242.675L408.225 239.027L407.99 238.653C407 237.077 406.476 235.254 406.479 233.393C406.481 227.943 410.915 223.509 416.368 223.509C419.008 223.509 421.49 224.539 423.356 226.407C424.276 227.323 425.005 228.413 425.502 229.614C425.998 230.814 426.252 232.101 426.248 233.4C426.246 238.85 421.812 243.285 416.364 243.285ZM424.776 224.988C423.674 223.879 422.363 222.999 420.919 222.401C419.475 221.802 417.926 221.496 416.363 221.5C409.809 221.5 404.473 226.835 404.471 233.392C404.468 235.479 405.015 237.529 406.058 239.337L404.371 245.5L410.675 243.846C412.418 244.796 414.373 245.294 416.359 245.294H416.364C422.918 245.294 428.254 239.959 428.256 233.401C428.26 231.838 427.955 230.29 427.358 228.846C426.761 227.402 425.883 226.09 424.776 224.988Z" fill="white"/>
</g>
</g>
<g filter="url(#filter3_d_18_901)">
<rect x="42.65" y="371.397" width="55.9582" height="55.9582" rx="27.9791" fill="#2C2FFE" shape-rendering="crispEdges"/>
<g clip-path="url(#clip1_18_901)">
<path d="M79.6292 388.376H61.6292V410.376H79.6292V388.376Z" stroke="white" stroke-width="2" stroke-miterlimit="10" stroke-linecap="square"/>
<path d="M70.6292 397.376C72.0099 397.376 73.1292 396.257 73.1292 394.876C73.1292 393.495 72.0099 392.376 70.6292 392.376C69.2484 392.376 68.1292 393.495 68.1292 394.876C68.1292 396.257 69.2484 397.376 70.6292 397.376Z" stroke="white" stroke-width="2" stroke-miterlimit="10" stroke-linecap="square"/>
<path d="M70.6292 400.376C69.3031 400.376 68.0313 400.903 67.0936 401.84C66.1559 402.778 65.6292 404.05 65.6292 405.376H75.6292C75.6292 404.05 75.1024 402.778 74.1647 401.84C73.227 400.903 71.9552 400.376 70.6292 400.376V400.376Z" stroke="white" stroke-width="2" stroke-miterlimit="10" stroke-linecap="square"/>
</g>
</g>
<g filter="url(#filter4_d_18_901)">
<rect x="30.6589" y="205.521" width="55.9582" height="55.9582" rx="27.9791" fill="#FB5B29" shape-rendering="crispEdges"/>
<path d="M65.6381 242.5H54.6381V228.5H65.6381M65.6381 226.5H54.6381C54.1076 226.5 53.5989 226.71 53.2238 227.086C52.8488 227.461 52.6381 227.969 52.6381 228.5V242.5C52.6381 243.03 52.8488 243.539 53.2238 243.914C53.5989 244.289 54.1076 244.5 54.6381 244.5H65.6381C66.1685 244.5 66.6772 244.289 67.0523 243.914C67.4273 243.539 67.6381 243.03 67.6381 242.5V228.5C67.6381 227.969 67.4273 227.461 67.0523 227.086C66.6772 226.71 66.1685 226.5 65.6381 226.5ZM62.6381 222.5H50.6381C50.1076 222.5 49.5989 222.71 49.2238 223.086C48.8488 223.461 48.6381 223.969 48.6381 224.5V238.5H50.6381V224.5H62.6381V222.5Z" fill="white"/>
</g>
<g filter="url(#filter5_d_18_901)">
<rect x="212.523" y="385.386" width="55.9582" height="55.9582" rx="27.9791" fill="#FB5B29" shape-rendering="crispEdges"/>
<path d="M237.052 411.916C237.052 412.181 236.947 412.435 236.76 412.623C236.572 412.81 236.318 412.916 236.052 412.916C235.787 412.916 235.533 412.81 235.345 412.623C235.158 412.435 235.052 412.181 235.052 411.916C235.052 411.65 235.158 411.396 235.345 411.208C235.533 411.021 235.787 410.916 236.052 410.916C236.318 410.916 236.572 411.021 236.76 411.208C236.947 411.396 237.052 411.65 237.052 411.916ZM239.052 412.916C239.318 412.916 239.572 412.81 239.76 412.623C239.947 412.435 240.052 412.181 240.052 411.916C240.052 411.65 239.947 411.396 239.76 411.208C239.572 411.021 239.318 410.916 239.052 410.916C238.787 410.916 238.533 411.021 238.345 411.208C238.158 411.396 238.052 411.65 238.052 411.916C238.052 412.181 238.158 412.435 238.345 412.623C238.533 412.81 238.787 412.916 239.052 412.916ZM242.052 412.916C242.318 412.916 242.572 412.81 242.76 412.623C242.947 412.435 243.052 412.181 243.052 411.916C243.052 411.65 242.947 411.396 242.76 411.208C242.572 411.021 242.318 410.916 242.052 410.916C241.787 410.916 241.533 411.021 241.345 411.208C241.158 411.396 241.052 411.65 241.052 411.916C241.052 412.181 241.158 412.435 241.345 412.623C241.533 412.81 241.787 412.916 242.052 412.916Z" fill="white"/>
<path fill-rule="evenodd" clip-rule="evenodd" d="M244.709 406.259C246.088 407.637 246.916 409.471 247.037 411.416C247.159 413.361 246.567 415.284 245.371 416.824C245.387 416.837 245.401 416.851 245.416 416.866L249.659 421.109C249.842 421.297 249.942 421.55 249.94 421.812C249.938 422.074 249.833 422.325 249.647 422.51C249.462 422.696 249.211 422.801 248.949 422.803C248.687 422.806 248.434 422.705 248.245 422.523L244.002 418.28C243.988 418.265 243.974 418.25 243.96 418.235C242.353 419.482 240.33 420.069 238.305 419.878C236.279 419.687 234.403 418.731 233.057 417.206C231.711 415.68 230.997 413.699 231.059 411.665C231.122 409.631 231.958 407.698 233.395 406.259C234.138 405.516 235.02 404.926 235.991 404.524C236.962 404.122 238.002 403.915 239.052 403.915C240.103 403.915 241.143 404.122 242.114 404.524C243.085 404.926 243.967 405.516 244.709 406.259ZM234.809 416.159C235.367 416.716 236.028 417.158 236.756 417.459C237.484 417.761 238.264 417.916 239.052 417.916C239.84 417.916 240.62 417.761 241.348 417.46C242.076 417.158 242.738 416.716 243.295 416.159C243.852 415.602 244.294 414.941 244.596 414.213C244.897 413.485 245.053 412.704 245.053 411.916C245.053 411.128 244.897 410.348 244.596 409.62C244.295 408.892 243.853 408.231 243.295 407.674C242.167 406.563 240.646 405.944 239.063 405.951C237.48 405.957 235.964 406.589 234.845 407.708C233.726 408.827 233.094 410.343 233.088 411.926C233.081 413.509 233.7 415.03 234.81 416.159H234.809Z" fill="white"/>
</g>
<g filter="url(#filter6_d_18_901)">
<rect x="380.398" y="371.397" width="55.9582" height="55.9582" rx="27.9791" fill="#2C2FFE" shape-rendering="crispEdges"/>
<path d="M416.347 408.761L412.991 405.405C411.543 406.065 409.968 406.396 408.377 406.378C406.737 406.398 405.114 406.044 403.631 405.343C402.482 404.782 401.45 404.008 400.59 403.061C399.677 402.083 398.96 400.939 398.477 399.692L398.377 399.378L398.482 399.062C399.205 397.218 400.421 395.609 401.998 394.411L399.377 391.79L400.79 390.378L417.759 407.347L416.349 408.761H416.347ZM403.413 395.827C402.135 396.723 401.126 397.951 400.494 399.378C401.156 400.905 402.261 402.198 403.667 403.09C405.072 403.981 406.713 404.43 408.377 404.378C409.427 404.387 410.471 404.217 411.464 403.878L409.664 402.078C409.264 402.274 408.824 402.377 408.377 402.378C407.583 402.373 406.823 402.055 406.261 401.494C405.7 400.932 405.382 400.172 405.377 399.378C405.377 398.931 405.48 398.49 405.677 398.088L403.413 395.827ZM416.229 402.988L414.837 401.597C415.423 400.935 415.903 400.186 416.26 399.378C415.599 397.85 414.494 396.556 413.088 395.665C411.682 394.773 410.041 394.325 408.377 394.378C408.13 394.378 407.882 394.387 407.642 394.404L405.877 392.637C406.699 392.461 407.537 392.374 408.377 392.378C410.017 392.358 411.64 392.712 413.123 393.413C414.273 393.973 415.304 394.748 416.164 395.695C417.076 396.672 417.793 397.814 418.277 399.06L418.377 399.378L418.272 399.694C417.804 400.912 417.111 402.031 416.23 402.994L416.229 402.988Z" fill="white"/>
</g>
<g filter="url(#filter7_d_18_901)">
<rect x="42.65" y="41.6433" width="55.9582" height="55.9582" rx="27.9791" fill="#2C2FFE" shape-rendering="crispEdges"/>
<path d="M69.6292 64.6223H71.6292V71.6223H69.6292V64.6223ZM69.6292 72.6223H71.6292V74.6223H69.6292V72.6223Z" fill="white"/>
<path d="M80.3362 64.9153L75.3362 59.9153C75.2434 59.8223 75.1333 59.7485 75.0119 59.6982C74.8906 59.6479 74.7605 59.6221 74.6292 59.6223H66.6292C66.4978 59.6221 66.3677 59.6479 66.2464 59.6982C66.125 59.7485 66.0149 59.8223 65.9222 59.9153L60.9222 64.9153C60.8291 65.008 60.7553 65.1182 60.705 65.2396C60.6548 65.3609 60.629 65.491 60.6292 65.6223V73.6223C60.6292 73.8883 60.7342 74.1423 60.9222 74.3293L65.9222 79.3293C66.0149 79.4224 66.125 79.4961 66.2464 79.5464C66.3677 79.5967 66.4978 79.6225 66.6292 79.6223H74.6292C74.8952 79.6223 75.1492 79.5173 75.3362 79.3293L80.3362 74.3293C80.4292 74.2366 80.503 74.1264 80.5533 74.0051C80.6036 73.8837 80.6293 73.7537 80.6292 73.6223V65.6223C80.6293 65.491 80.6036 65.3609 80.5533 65.2396C80.503 65.1182 80.4292 65.008 80.3362 64.9153ZM78.6292 73.2083L74.2152 77.6223H67.0432L62.6292 73.2083V66.0363L67.0432 61.6223H74.2152L78.6292 66.0363V73.2083Z" fill="white"/>
</g>
<g filter="url(#filter8_d_18_901)">
<rect x="380.398" y="41.6433" width="55.9582" height="55.9582" rx="27.9791" fill="#2C2FFE" shape-rendering="crispEdges"/>
<path d="M407.252 69.6223C407.252 69.9207 407.37 70.2068 407.581 70.4178C407.792 70.6288 408.078 70.7473 408.377 70.7473C408.675 70.7473 408.961 70.6288 409.172 70.4178C409.383 70.2068 409.502 69.9207 409.502 69.6223C409.502 69.3239 409.383 69.0378 409.172 68.8268C408.961 68.6158 408.675 68.4973 408.377 68.4973C408.078 68.4973 407.792 68.6158 407.581 68.8268C407.37 69.0378 407.252 69.3239 407.252 69.6223ZM411.939 69.6223C411.939 69.9207 412.058 70.2068 412.269 70.4178C412.48 70.6288 412.766 70.7473 413.064 70.7473C413.363 70.7473 413.649 70.6288 413.86 70.4178C414.071 70.2068 414.189 69.9207 414.189 69.6223C414.189 69.3239 414.071 69.0378 413.86 68.8268C413.649 68.6158 413.363 68.4973 413.064 68.4973C412.766 68.4973 412.48 68.6158 412.269 68.8268C412.058 69.0378 411.939 69.3239 411.939 69.6223ZM402.564 69.6223C402.564 69.9207 402.683 70.2068 402.894 70.4178C403.105 70.6288 403.391 70.7473 403.689 70.7473C403.988 70.7473 404.274 70.6288 404.485 70.4178C404.696 70.2068 404.814 69.9207 404.814 69.6223C404.814 69.3239 404.696 69.0378 404.485 68.8268C404.274 68.6158 403.988 68.4973 403.689 68.4973C403.391 68.4973 403.105 68.6158 402.894 68.8268C402.683 69.0378 402.564 69.3239 402.564 69.6223ZM418.061 65.5536C417.532 64.295 416.772 63.1653 415.804 62.195C414.843 61.2303 413.702 60.4635 412.446 59.9379C411.157 59.3965 409.788 59.1223 408.377 59.1223H408.33C406.91 59.1293 405.534 59.4106 404.24 59.9637C402.995 60.4946 401.864 61.2628 400.912 62.2254C399.953 63.1934 399.201 64.3184 398.681 65.5723C398.142 66.8708 397.87 68.2512 397.877 69.6715C397.885 71.2992 398.27 72.9029 399.002 74.3567V77.9192C399.002 78.2051 399.115 78.4794 399.318 78.6815C399.52 78.8837 399.794 78.9973 400.08 78.9973H403.645C405.099 79.7293 406.702 80.1144 408.33 80.1223H408.379C409.783 80.1223 411.145 79.8504 412.427 79.3184C413.677 78.7992 414.814 78.0413 415.774 77.0872C416.742 76.1286 417.503 75.0083 418.035 73.759C418.589 72.4653 418.87 71.0895 418.877 69.6692C418.884 68.2418 418.607 66.8567 418.061 65.5536ZM414.52 75.8192C412.877 77.4458 410.697 78.3411 408.377 78.3411H408.337C406.924 78.334 405.52 77.9825 404.28 77.3215L404.083 77.2161H400.783V73.9161L400.678 73.7192C400.017 72.4793 399.665 71.0754 399.658 69.6622C399.649 67.3254 400.542 65.1317 402.18 63.4793C403.816 61.827 406.003 60.9129 408.339 60.9036H408.379C409.551 60.9036 410.688 61.1309 411.759 61.5809C412.804 62.0192 413.742 62.6497 414.548 63.4559C415.352 64.2598 415.985 65.1997 416.423 66.245C416.878 67.3278 417.105 68.4762 417.1 69.6622C417.086 71.9965 416.17 74.1833 414.52 75.8192Z" fill="white"/>
</g>
<g filter="url(#filter9_d_18_901)">
<rect x="212.523" y="22.6575" width="55.9582" height="55.9582" rx="27.9791" fill="#FB5B29" shape-rendering="crispEdges"/>
<path d="M241.502 46.6365C242.298 46.6365 243.061 46.9525 243.624 47.5152C244.186 48.0778 244.502 48.8408 244.502 49.6365C244.502 49.9017 244.608 50.156 244.795 50.3436C244.983 50.5311 245.237 50.6365 245.502 50.6365C245.768 50.6365 246.022 50.5311 246.21 50.3436C246.397 50.156 246.502 49.9017 246.502 49.6365C246.502 48.3104 245.976 47.0386 245.038 46.1009C244.1 45.1633 242.829 44.6365 241.502 44.6365C241.237 44.6365 240.983 44.7418 240.795 44.9294C240.608 45.1169 240.502 45.3713 240.502 45.6365C240.502 45.9017 240.608 46.156 240.795 46.3436C240.983 46.5311 241.237 46.6365 241.502 46.6365Z" fill="white"/>
<path d="M241.502 42.6365C243.359 42.6365 245.139 43.374 246.452 44.6867C247.765 45.9995 248.502 47.78 248.502 49.6365C248.502 49.9017 248.608 50.156 248.795 50.3436C248.983 50.5311 249.237 50.6365 249.502 50.6365C249.768 50.6365 250.022 50.5311 250.21 50.3436C250.397 50.156 250.502 49.9017 250.502 49.6365C250.502 47.2495 249.554 44.9603 247.866 43.2725C246.179 41.5847 243.889 40.6365 241.502 40.6365C241.237 40.6365 240.983 40.7418 240.795 40.9294C240.608 41.1169 240.502 41.3713 240.502 41.6365C240.502 41.9017 240.608 42.156 240.795 42.3436C240.983 42.5311 241.237 42.6365 241.502 42.6365ZM250.252 54.5465C250.197 54.3859 250.102 54.242 249.977 54.1283C249.851 54.0146 249.698 53.9348 249.532 53.8965L243.532 52.5265C243.37 52.4895 243.2 52.494 243.039 52.5394C242.879 52.5848 242.732 52.6698 242.612 52.7865C242.472 52.9165 242.462 52.9265 241.812 54.1665C239.656 53.1726 237.927 51.4373 236.942 49.2765C238.212 48.6365 238.222 48.6365 238.352 48.4865C238.469 48.367 238.554 48.2203 238.6 48.0596C238.645 47.8989 238.649 47.7293 238.612 47.5665L237.242 41.6365C237.204 41.4712 237.124 41.3183 237.011 41.1924C236.897 41.0664 236.753 40.9715 236.592 40.9165C236.359 40.8331 236.118 40.7728 235.872 40.7365C235.62 40.6779 235.362 40.6444 235.102 40.6365C233.882 40.6365 232.712 41.1211 231.85 41.9838C230.987 42.8465 230.502 44.0165 230.502 45.2365C230.508 49.3192 232.132 53.2332 235.019 56.1201C237.906 59.007 241.82 60.6312 245.902 60.6365C246.507 60.6365 247.105 60.5175 247.663 60.2863C248.221 60.0551 248.728 59.7163 249.155 59.2892C249.582 58.862 249.921 58.3549 250.152 57.7968C250.383 57.2387 250.502 56.6406 250.502 56.0365C250.503 55.7819 250.483 55.5278 250.442 55.2765C250.4 55.0281 250.337 54.7838 250.252 54.5465ZM245.902 58.6365C242.349 58.6338 238.943 57.2212 236.43 54.7088C233.918 52.1964 232.505 48.7896 232.502 45.2365C232.505 44.5477 232.78 43.8879 233.267 43.4009C233.754 42.9139 234.414 42.6391 235.102 42.6365H235.432L236.502 47.2765L235.962 47.5565C235.102 48.0065 234.422 48.3665 234.782 49.1465C235.369 50.8061 236.317 52.3142 237.559 53.5614C238.801 54.8085 240.305 55.7633 241.962 56.3565C242.802 56.6965 243.132 56.0665 243.582 55.1965L243.872 54.6465L248.502 55.7065V56.0365C248.5 56.7252 248.225 57.385 247.738 57.872C247.251 58.3591 246.591 58.6338 245.902 58.6365Z" fill="white"/>
</g>
<defs>
<filter id="filter0_d_18_901" x="123.564" y="142.568" width="242.869" height="242.869" filterUnits="userSpaceOnUse" color-interpolation-filters="sRGB">
<feFlood flood-opacity="0" result="BackgroundImageFix"/>
<feColorMatrix in="SourceAlpha" type="matrix" values="0 0 0 0 0 0 0 0 0 0 0 0 0 0 0 0 0 0 127 0" result="hardAlpha"/>
<feOffset dy="34"/>
<feGaussianBlur stdDeviation="17"/>
<feComposite in2="hardAlpha" operator="out"/>
<feColorMatrix type="matrix" values="0 0 0 0 0.180392 0 0 0 0 0.188235 0 0 0 0 0.992157 0 0 0 0.32 0"/>
<feBlend mode="normal" in2="BackgroundImageFix" result="effect1_dropShadow_18_901"/>
<feBlend mode="normal" in="SourceGraphic" in2="effect1_dropShadow_18_901" result="shape"/>
</filter>
<filter id="filter1_di_18_901" x="190.802" y="187.534" width="109.393" height="115.254" filterUnits="userSpaceOnUse" color-interpolation-filters="sRGB">
<feFlood flood-opacity="0" result="BackgroundImageFix"/>
<feColorMatrix in="SourceAlpha" type="matrix" values="0 0 0 0 0 0 0 0 0 0 0 0 0 0 0 0 0 0 127 0" result="hardAlpha"/>
<feOffset dy="15.6364"/>
<feGaussianBlur stdDeviation="6.84091"/>
<feComposite in2="hardAlpha" operator="out"/>
<feColorMatrix type="matrix" values="0 0 0 0 0.151545 0 0 0 0 0.161463 0 0 0 0 0.845833 0 0 0 1 0"/>
<feBlend mode="normal" in2="BackgroundImageFix" result="effect1_dropShadow_18_901"/>
<feBlend mode="normal" in="SourceGraphic" in2="effect1_dropShadow_18_901" result="shape"/>
<feColorMatrix in="SourceAlpha" type="matrix" values="0 0 0 0 0 0 0 0 0 0 0 0 0 0 0 0 0 0 127 0" result="hardAlpha"/>
<feOffset dx="3.90909" dy="5.86364"/>
<feGaussianBlur stdDeviation="2.93182"/>
<feComposite in2="hardAlpha" operator="arithmetic" k2="-1" k3="1"/>
<feColorMatrix type="matrix" values="0 0 0 0 0.710742 0 0 0 0 0.714874 0 0 0 0 1 0 0 0 1 0"/>
<feBlend mode="normal" in2="shape" result="effect2_innerShadow_18_901"/>
</filter>
<filter id="filter2_d_18_901" x="358.392" y="186.521" width="115.958" height="115.958" filterUnits="userSpaceOnUse" color-interpolation-filters="sRGB">
<feFlood flood-opacity="0" result="BackgroundImageFix"/>
<feColorMatrix in="SourceAlpha" type="matrix" values="0 0 0 0 0 0 0 0 0 0 0 0 0 0 0 0 0 0 127 0" result="hardAlpha"/>
<feOffset dy="11"/>
<feGaussianBlur stdDeviation="15"/>
<feComposite in2="hardAlpha" operator="out"/>
<feColorMatrix type="matrix" values="0 0 0 0 0.984314 0 0 0 0 0.356863 0 0 0 0 0.160784 0 0 0 0.6 0"/>
<feBlend mode="normal" in2="BackgroundImageFix" result="effect1_dropShadow_18_901"/>
<feBlend mode="normal" in="SourceGraphic" in2="effect1_dropShadow_18_901" result="shape"/>
</filter>
<filter id="filter3_d_18_901" x="12.65" y="352.397" width="115.958" height="115.958" filterUnits="userSpaceOnUse" color-interpolation-filters="sRGB">
<feFlood flood-opacity="0" result="BackgroundImageFix"/>
<feColorMatrix in="SourceAlpha" type="matrix" values="0 0 0 0 0 0 0 0 0 0 0 0 0 0 0 0 0 0 127 0" result="hardAlpha"/>
<feOffset dy="11"/>
<feGaussianBlur stdDeviation="15"/>
<feComposite in2="hardAlpha" operator="out"/>
<feColorMatrix type="matrix" values="0 0 0 0 0.172549 0 0 0 0 0.184314 0 0 0 0 0.996078 0 0 0 0.3 0"/>
<feBlend mode="normal" in2="BackgroundImageFix" result="effect1_dropShadow_18_901"/>
<feBlend mode="normal" in="SourceGraphic" in2="effect1_dropShadow_18_901" result="shape"/>
</filter>
<filter id="filter4_d_18_901" x="0.658936" y="186.521" width="115.958" height="115.958" filterUnits="userSpaceOnUse" color-interpolation-filters="sRGB">
<feFlood flood-opacity="0" result="BackgroundImageFix"/>
<feColorMatrix in="SourceAlpha" type="matrix" values="0 0 0 0 0 0 0 0 0 0 0 0 0 0 0 0 0 0 127 0" result="hardAlpha"/>
<feOffset dy="11"/>
<feGaussianBlur stdDeviation="15"/>
<feComposite in2="hardAlpha" operator="out"/>
<feColorMatrix type="matrix" values="0 0 0 0 0.984314 0 0 0 0 0.356863 0 0 0 0 0.160784 0 0 0 0.6 0"/>
<feBlend mode="normal" in2="BackgroundImageFix" result="effect1_dropShadow_18_901"/>
<feBlend mode="normal" in="SourceGraphic" in2="effect1_dropShadow_18_901" result="shape"/>
</filter>
<filter id="filter5_d_18_901" x="182.523" y="366.386" width="115.958" height="115.958" filterUnits="userSpaceOnUse" color-interpolation-filters="sRGB">
<feFlood flood-opacity="0" result="BackgroundImageFix"/>
<feColorMatrix in="SourceAlpha" type="matrix" values="0 0 0 0 0 0 0 0 0 0 0 0 0 0 0 0 0 0 127 0" result="hardAlpha"/>
<feOffset dy="11"/>
<feGaussianBlur stdDeviation="15"/>
<feComposite in2="hardAlpha" operator="out"/>
<feColorMatrix type="matrix" values="0 0 0 0 0.984314 0 0 0 0 0.356863 0 0 0 0 0.160784 0 0 0 0.6 0"/>
<feBlend mode="normal" in2="BackgroundImageFix" result="effect1_dropShadow_18_901"/>
<feBlend mode="normal" in="SourceGraphic" in2="effect1_dropShadow_18_901" result="shape"/>
</filter>
<filter id="filter6_d_18_901" x="350.398" y="352.397" width="115.958" height="115.958" filterUnits="userSpaceOnUse" color-interpolation-filters="sRGB">
<feFlood flood-opacity="0" result="BackgroundImageFix"/>
<feColorMatrix in="SourceAlpha" type="matrix" values="0 0 0 0 0 0 0 0 0 0 0 0 0 0 0 0 0 0 127 0" result="hardAlpha"/>
<feOffset dy="11"/>
<feGaussianBlur stdDeviation="15"/>
<feComposite in2="hardAlpha" operator="out"/>
<feColorMatrix type="matrix" values="0 0 0 0 0.172549 0 0 0 0 0.184314 0 0 0 0 0.996078 0 0 0 0.3 0"/>
<feBlend mode="normal" in2="BackgroundImageFix" result="effect1_dropShadow_18_901"/>
<feBlend mode="normal" in="SourceGraphic" in2="effect1_dropShadow_18_901" result="shape"/>
</filter>
<filter id="filter7_d_18_901" x="12.65" y="22.6433" width="115.958" height="115.958" filterUnits="userSpaceOnUse" color-interpolation-filters="sRGB">
<feFlood flood-opacity="0" result="BackgroundImageFix"/>
<feColorMatrix in="SourceAlpha" type="matrix" values="0 0 0 0 0 0 0 0 0 0 0 0 0 0 0 0 0 0 127 0" result="hardAlpha"/>
<feOffset dy="11"/>
<feGaussianBlur stdDeviation="15"/>
<feComposite in2="hardAlpha" operator="out"/>
<feColorMatrix type="matrix" values="0 0 0 0 0.172549 0 0 0 0 0.184314 0 0 0 0 0.996078 0 0 0 0.3 0"/>
<feBlend mode="normal" in2="BackgroundImageFix" result="effect1_dropShadow_18_901"/>
<feBlend mode="normal" in="SourceGraphic" in2="effect1_dropShadow_18_901" result="shape"/>
</filter>
<filter id="filter8_d_18_901" x="350.398" y="22.6433" width="115.958" height="115.958" filterUnits="userSpaceOnUse" color-interpolation-filters="sRGB">
<feFlood flood-opacity="0" result="BackgroundImageFix"/>
<feColorMatrix in="SourceAlpha" type="matrix" values="0 0 0 0 0 0 0 0 0 0 0 0 0 0 0 0 0 0 127 0" result="hardAlpha"/>
<feOffset dy="11"/>
<feGaussianBlur stdDeviation="15"/>
<feComposite in2="hardAlpha" operator="out"/>
<feColorMatrix type="matrix" values="0 0 0 0 0.172549 0 0 0 0 0.184314 0 0 0 0 0.996078 0 0 0 0.3 0"/>
<feBlend mode="normal" in2="BackgroundImageFix" result="effect1_dropShadow_18_901"/>
<feBlend mode="normal" in="SourceGraphic" in2="effect1_dropShadow_18_901" result="shape"/>
</filter>
<filter id="filter9_d_18_901" x="182.523" y="3.65747" width="115.958" height="115.958" filterUnits="userSpaceOnUse" color-interpolation-filters="sRGB">
<feFlood flood-opacity="0" result="BackgroundImageFix"/>
<feColorMatrix in="SourceAlpha" type="matrix" values="0 0 0 0 0 0 0 0 0 0 0 0 0 0 0 0 0 0 127 0" result="hardAlpha"/>
<feOffset dy="11"/>
<feGaussianBlur stdDeviation="15"/>
<feComposite in2="hardAlpha" operator="out"/>
<feColorMatrix type="matrix" values="0 0 0 0 0.984314 0 0 0 0 0.356863 0 0 0 0 0.160784 0 0 0 0.6 0"/>
<feBlend mode="normal" in2="BackgroundImageFix" result="effect1_dropShadow_18_901"/>
<feBlend mode="normal" in="SourceGraphic" in2="effect1_dropShadow_18_901" result="shape"/>
</filter>
<linearGradient id="paint0_linear_18_901" x1="183.045" y1="167.05" x2="302.456" y2="298.451" gradientUnits="userSpaceOnUse">
<stop stop-color="#5557FF"/>
<stop offset="1" stop-color="#2C2FFE"/>
</linearGradient>
<clipPath id="clip0_18_901">
<rect width="24" height="24" fill="white" transform="translate(404.371 221.5)"/>
</clipPath>
<clipPath id="clip1_18_901">
<rect width="24" height="24" fill="white" transform="translate(58.6292 387.376)"/>
</clipPath>
</defs>
</svg>
