<svg width="28" height="28" viewBox="0 0 28 28" fill="none" xmlns="http://www.w3.org/2000/svg">
<circle cx="14" cy="14" r="14" fill="#DFE0FF"/>
<g clip-path="url(#clip0_226_1616)">
<path d="M19.475 8H8.525C8.225 8 8 8.225 8 8.525V19.55C8 19.775 8.225 20 8.525 20H19.55C19.85 20 20.075 19.775 20.075 19.475V8.525C20 8.225 19.775 8 19.475 8ZM11.525 18.2H9.8V12.5H11.6V18.2H11.525ZM10.7 11.75C10.1 11.75 9.65 11.225 9.65 10.7C9.65 10.1 10.1 9.65 10.7 9.65C11.3 9.65 11.75 10.1 11.75 10.7C11.675 11.225 11.225 11.75 10.7 11.75ZM18.2 18.2H16.4V15.425C16.4 14.75 16.4 13.925 15.5 13.925C14.6 13.925 14.45 14.675 14.45 15.425V18.275H12.65V12.5H14.375V13.25C14.6 12.8 15.2 12.35 16.025 12.35C17.825 12.35 18.125 13.55 18.125 15.05V18.2H18.2Z" fill="#2C2FFE"/>
</g>
<defs>
<clipPath id="clip0_226_1616">
<rect width="12" height="12" fill="white" transform="translate(8 8)"/>
</clipPath>
</defs>
</svg>
