<svg width="32" height="32" viewBox="0 0 32 32" fill="none" xmlns="http://www.w3.org/2000/svg">
<path fill-rule="evenodd" clip-rule="evenodd" d="M16 0C24.8366 0 32 7.16344 32 16C32 24.8366 24.8366 32 16 32C7.16344 32 0 24.8366 0 16C0 7.16344 7.16344 0 16 0Z" fill="#2C2FFE"/>
<path fill-rule="evenodd" clip-rule="evenodd" d="M21.4482 8.77716C19.8001 8.77716 17.9724 9.72944 17.9724 15.9275C17.9724 22.1255 19.7993 23.0778 21.4482 23.0778C21.976 23.0778 22.3417 22.9407 22.5828 22.7943C22.8296 22.6437 22.9486 22.3538 22.8756 22.0742C22.6929 21.3766 22.2994 19.8712 22.117 19.1732C22.0572 18.9439 21.8777 18.7679 21.6484 18.7095L20.4856 18.415C20.2253 18.3491 20.033 18.134 20.0002 17.8677C19.9436 17.4072 19.867 16.6511 19.867 15.9268C19.867 15.2024 19.9436 14.4463 20.0002 13.9859C20.033 13.7195 20.2253 13.5044 20.4856 13.4385L21.6484 13.144C21.8781 13.0859 22.0579 12.9075 22.1177 12.6782L22.8749 9.78286C22.9479 9.50259 22.8289 9.20986 22.581 9.05957C22.3407 8.9132 21.9749 8.77681 21.4482 8.77716ZM10.5517 8.77716C10.025 8.77681 9.65922 8.9132 9.41883 9.05957C9.18336 9.20234 9.06424 9.47367 9.11551 9.74075L9.12503 9.78286L9.88215 12.6782C9.93824 12.8932 10.0998 13.0634 10.3091 13.1317L10.3515 13.144L11.5143 13.4385C11.7746 13.5044 11.9669 13.7195 11.9997 13.9859C12.0563 14.4463 12.1329 15.2024 12.1329 15.9268C12.1329 16.6511 12.0563 17.4072 11.9997 17.8677C11.9686 18.12 11.7944 18.3264 11.5548 18.4034L11.5143 18.415L10.3515 18.7095C10.1222 18.7679 9.9427 18.9439 9.88287 19.1732C9.70053 19.8712 9.30701 21.3766 9.12432 22.0742C9.05131 22.3538 9.17026 22.6437 9.41705 22.7943C9.65815 22.9407 10.0239 23.0778 10.5517 23.0778C12.2005 23.0778 14.0275 22.1255 14.0275 15.9275C14.0275 9.72944 12.1998 8.77716 10.5517 8.77716ZM15.9999 14.914C15.4001 14.914 14.9139 15.4002 14.9139 16C14.9139 16.5998 15.4001 17.086 15.9999 17.086C16.5997 17.086 17.0859 16.5998 17.0859 16C17.0859 15.4002 16.5997 14.914 15.9999 14.914Z" fill="white"/>
</svg>
