<svg width="28" height="28" viewBox="0 0 28 28" fill="none" xmlns="http://www.w3.org/2000/svg">
<circle cx="14" cy="14" r="14" fill="#DFE0FF"/>
<g clip-path="url(#clip0_323_1941)">
<path d="M14 9.08075C15.602 9.08075 15.7917 9.0875 16.4247 9.116C16.8051 9.12057 17.1819 9.19059 17.5385 9.323C17.7993 9.41936 18.0352 9.57315 18.2285 9.773C18.4283 9.96634 18.5821 10.2022 18.6785 10.463C18.8109 10.8196 18.8809 11.1964 18.8855 11.5768C18.914 12.2098 18.9207 12.4018 18.9207 14.0015C18.9207 15.6012 18.914 15.7932 18.8855 16.4262C18.8809 16.8066 18.8109 17.1834 18.6785 17.54C18.5789 17.7988 18.4261 18.0339 18.23 18.23C18.0339 18.4261 17.7988 18.5789 17.54 18.6785C17.1834 18.8109 16.8066 18.8809 16.4262 18.8855C15.7932 18.914 15.6012 18.9207 14.0015 18.9207C12.4018 18.9207 12.2098 18.914 11.5768 18.8855C11.1964 18.8809 10.8196 18.8109 10.463 18.6785C10.2022 18.5821 9.96634 18.4283 9.773 18.2285C9.57315 18.0352 9.41936 17.7993 9.323 17.5385C9.19059 17.1819 9.12057 16.8051 9.116 16.4247C9.0875 15.7917 9.08075 15.5998 9.08075 14C9.08075 12.4002 9.0875 12.2083 9.116 11.5753C9.12057 11.1949 9.19059 10.8181 9.323 10.4615C9.41936 10.2007 9.57315 9.96484 9.773 9.7715C9.96634 9.57165 10.2022 9.41786 10.463 9.3215C10.8196 9.18909 11.1964 9.11907 11.5768 9.1145C12.2098 9.086 12.4018 9.07925 14.0015 9.07925M14 8C12.3702 8 12.1662 8.00675 11.525 8.036C11.0277 8.04611 10.5357 8.14045 10.07 8.315C9.66947 8.46542 9.30673 8.7017 9.00725 9.00725C8.7017 9.30673 8.46542 9.66947 8.315 10.07C8.14045 10.5357 8.04611 11.0277 8.036 11.525C8.00675 12.1662 8 12.3702 8 14C8 15.6298 8.00675 15.8338 8.036 16.475C8.04611 16.9723 8.14045 17.4643 8.315 17.93C8.46542 18.3305 8.7017 18.6933 9.00725 18.9928C9.30673 19.2983 9.66947 19.5346 10.07 19.685C10.5362 19.8597 11.0287 19.9541 11.5265 19.964C12.1663 19.9932 12.3702 20 14 20C15.6298 20 15.8338 19.9932 16.475 19.964C16.9728 19.9541 17.4653 19.8597 17.9315 19.685C18.3301 19.5307 18.692 19.2949 18.9942 18.9927C19.2964 18.6905 19.5322 18.3286 19.6865 17.93C19.8612 17.4638 19.9556 16.9713 19.9655 16.4735C19.9948 15.8338 20.0015 15.6298 20.0015 13.9985C20.0015 12.3672 19.9948 12.1648 19.9655 11.5235C19.9547 11.0266 19.8599 10.5352 19.685 10.07C19.5346 9.66947 19.2983 9.30673 18.9928 9.00725C18.6933 8.7017 18.3305 8.46542 17.93 8.315C17.4643 8.14045 16.9723 8.04611 16.475 8.036C15.8338 8.00675 15.6298 8 14 8Z" fill="#2C2FFE"/>
<path d="M13.9999 10.9189C13.3906 10.9189 12.7949 11.0996 12.2882 11.4382C11.7816 11.7767 11.3867 12.2579 11.1535 12.8209C10.9203 13.3839 10.8593 14.0034 10.9781 14.601C11.097 15.1987 11.3905 15.7477 11.8214 16.1785C12.2522 16.6094 12.8012 16.9029 13.3989 17.0217C13.9965 17.1406 14.616 17.0796 15.179 16.8464C15.742 16.6132 16.2232 16.2183 16.5617 15.7117C16.9002 15.205 17.0809 14.6093 17.0809 13.9999C17.0809 13.5953 17.0013 13.1947 16.8464 12.8209C16.6916 12.4471 16.4646 12.1074 16.1785 11.8213C15.8924 11.5353 15.5528 11.3083 15.179 11.1535C14.8052 10.9986 14.4045 10.9189 13.9999 10.9189ZM13.9999 16.0002C13.6043 16.0002 13.2176 15.8829 12.8887 15.6631C12.5597 15.4433 12.3034 15.1309 12.152 14.7654C12.0006 14.3999 11.961 13.9977 12.0381 13.6097C12.1153 13.2217 12.3058 12.8653 12.5856 12.5856C12.8653 12.3058 13.2217 12.1153 13.6097 12.0381C13.9977 11.9609 14.3999 12.0006 14.7654 12.152C15.1309 12.3033 15.4433 12.5597 15.6631 12.8887C15.8829 13.2176 16.0002 13.6043 16.0002 13.9999C16.0002 14.5304 15.7895 15.0392 15.4143 15.4143C15.0392 15.7895 14.5304 16.0002 13.9999 16.0002Z" fill="#2C2FFE"/>
<path d="M17.2024 11.5176C17.6001 11.5176 17.9224 11.1953 17.9224 10.7976C17.9224 10.4 17.6001 10.0776 17.2024 10.0776C16.8048 10.0776 16.4824 10.4 16.4824 10.7976C16.4824 11.1953 16.8048 11.5176 17.2024 11.5176Z" fill="#2C2FFE"/>
</g>
<defs>
<clipPath id="clip0_323_1941">
<rect width="12" height="12" fill="white" transform="translate(8 8)"/>
</clipPath>
</defs>
</svg>
