<svg width="1360" height="768" viewBox="0 0 1360 768" fill="none" xmlns="http://www.w3.org/2000/svg">
<path d="M1316.6 613.978C1361.85 777.773 1242.08 940.796 1072.25 946.573L1037.84 947.743C971.25 950.008 907.956 918.742 869.289 864.479L866.837 861.037C813.6 786.328 715.39 758.989 631.208 795.443L549.527 830.815C435.905 880.018 315.156 777.651 345.1 657.508L349.395 640.276C360.918 594.04 344.607 545.315 307.568 515.336C222.123 446.176 265.02 308.14 374.615 299.593L534.683 287.109C599.62 282.045 657.215 243.48 686.631 185.366L797.547 -33.762C832.437 -102.69 929.546 -106.279 969.429 -40.1154C998.043 7.35471 1059.98 22.2069 1107.01 -7.12376L1139.93 -27.6508C1245.23 -93.3221 1376.43 4.21826 1343.88 123.975L1279.97 359.103C1269.01 399.452 1269.09 442.008 1280.23 482.311L1316.6 613.978Z" stroke="#C0F2FE"/>
<path d="M1432.38 655.676C1487.91 856.894 1340.91 1057.16 1132.46 1064.26L1090.25 1065.7C1008.51 1068.48 930.819 1030.06 883.355 963.397L880.346 959.17C815.059 867.469 694.62 833.911 591.383 878.657L491.166 922.094C351.675 982.554 203.432 856.767 240.194 709.136L245.463 687.974C259.591 631.237 239.593 571.447 194.184 534.659C89.2684 449.663 141.942 280.021 276.508 269.517L472.9 254.187C552.535 247.97 623.164 200.634 659.237 129.304L795.324 -139.793C838.171 -224.518 957.43 -228.93 1006.41 -147.602C1041.48 -89.3618 1117.41 -71.1395 1175.06 -107.125L1215.44 -132.333C1344.72 -213.034 1505.81 -93.1711 1465.85 53.9952L1387.44 342.741C1373.99 392.271 1374.09 444.511 1387.75 493.985L1432.38 655.676Z" stroke="#C0F2FE"/>
<path d="M1562.26 702.281C1629.31 945.122 1451.84 1186.82 1200.18 1195.38L1149.23 1197.12C1050.54 1200.47 956.729 1154.11 899.421 1073.64L895.789 1068.55C817.017 957.944 671.702 917.47 547.141 971.438L426.181 1023.85C257.738 1096.83 78.7284 944.99 123.12 766.785L129.48 741.253C146.523 672.837 122.399 600.738 67.6223 556.378C-59.0815 453.768 4.53019 248.972 167.043 236.291L404.085 217.795C500.166 210.297 585.383 153.206 628.906 67.1751L793.16 -257.499C844.913 -359.796 988.958 -365.123 1048.12 -266.928C1090.42 -196.709 1181.99 -174.738 1251.53 -218.126L1300.27 -248.54C1456.39 -345.958 1650.92 -201.265 1602.66 -23.6136L1508.02 324.768C1491.79 384.51 1491.92 447.521 1508.4 507.195L1562.26 702.281Z" stroke="#C0F2FE"/>
<path d="M1232.07 584.241C1269.85 720.916 1169.84 856.947 1028.04 861.768L999.3 862.745C943.704 864.635 890.862 838.548 858.58 793.275L856.531 790.402C812.04 728.008 729.965 705.175 659.613 735.62L591.385 765.146C496.54 806.191 395.747 720.797 420.742 620.576L424.329 606.192C433.963 567.565 420.326 526.859 389.364 501.814C318.051 444.131 353.852 329 445.322 321.871L579.025 311.451C633.295 307.221 681.429 275.012 706.013 226.476L798.661 43.5604C827.774 -13.9186 908.808 -16.912 942.088 38.2623C966.013 77.9271 1017.8 90.337 1057.12 65.8292L1084.62 48.6944C1172.51 -6.08511 1282.02 75.2783 1254.86 175.171L1201.47 371.442C1192.31 405.138 1192.38 440.676 1201.69 474.334L1232.07 584.241Z" stroke="#C0F2FE"/>
<path d="M1147.56 554.154C1177.86 663.96 1097.67 773.246 983.982 777.119L960.929 777.904C916.364 779.422 874.005 758.468 848.128 722.103L846.484 719.794C810.767 669.6 744.876 651.232 688.397 675.724L633.664 699.458C557.657 732.419 476.878 663.845 496.91 583.359L499.788 571.797C507.525 540.71 496.574 507.95 471.705 487.794C414.566 441.48 443.254 349.045 516.54 343.321L623.797 334.944C667.367 331.542 706.01 305.63 725.747 266.584L800.068 119.548C823.388 73.4131 888.295 71.0106 914.952 115.296C934.173 147.227 975.779 157.218 1007.37 137.488L1029.43 123.714C1099.86 79.729 1187.62 145.059 1165.84 225.273L1123.02 383.045C1115.66 410.148 1115.72 438.733 1123.19 465.805L1147.56 554.154Z" stroke="#C0F2FE"/>
<path d="M1052.1 519.938C1073.93 599.186 1016.15 678.057 934.216 680.852L917.584 681.419C885.479 682.514 854.964 667.397 836.321 641.161L835.135 639.493C809.329 603.175 761.721 589.885 720.912 607.606L681.425 624.754C626.696 648.521 568.528 599.075 582.953 541.034L585.029 532.681C590.624 510.169 582.705 486.445 564.721 471.848C523.593 438.465 544.244 371.84 596.991 367.715L674.372 361.663C705.855 359.2 733.778 340.45 748.039 312.197L801.659 205.965C818.434 172.731 865.123 171 884.299 202.902C898.206 226.038 928.31 233.278 951.169 218.982L967.081 209.03C1017.78 177.32 1080.97 224.417 1065.29 282.252L1034.4 396.24C1029.08 415.846 1029.13 436.523 1034.52 456.106L1052.1 519.938Z" stroke="#C0F2FE"/>
<path d="M956.645 485.721C970.015 534.413 934.624 582.867 884.45 584.584L874.239 584.934C854.595 585.606 835.922 576.327 824.514 560.221L823.786 559.193C807.891 536.752 778.565 528.538 753.427 539.489L729.185 550.05C695.737 564.622 660.176 534.307 668.995 498.71L670.27 493.565C673.722 479.629 668.836 464.941 657.737 455.904C632.62 435.451 645.236 394.636 677.441 392.109L724.947 388.381C744.344 386.859 761.546 375.271 770.331 357.81L803.249 292.383C813.48 272.049 841.952 270.991 853.646 290.508C862.239 304.85 880.841 309.339 894.968 300.476L904.736 294.347C935.71 274.914 974.321 303.774 964.741 339.231L945.774 409.436C942.503 421.544 942.529 434.314 945.85 446.408L956.645 485.721Z" stroke="#C0F2FE"/>
</svg>
